<?xml version="1.0" encoding="utf-8" standalone="no"?>
<!DOCTYPE svg PUBLIC "-//W3C//DTD SVG 1.1//EN"
  "http://www.w3.org/Graphics/SVG/1.1/DTD/svg11.dtd">
<svg xmlns:xlink="http://www.w3.org/1999/xlink" width="460.8pt" height="345.6pt" viewBox="0 0 460.8 345.6" xmlns="http://www.w3.org/2000/svg" version="1.1">
 <metadata>
  <rdf:RDF xmlns:dc="http://purl.org/dc/elements/1.1/" xmlns:cc="http://creativecommons.org/ns#" xmlns:rdf="http://www.w3.org/1999/02/22-rdf-syntax-ns#">
   <cc:Work>
    <dc:type rdf:resource="http://purl.org/dc/dcmitype/StillImage"/>
    <dc:date>2024-02-15T14:08:03.714124</dc:date>
    <dc:format>image/svg+xml</dc:format>
    <dc:creator>
     <cc:Agent>
      <dc:title>Matplotlib v3.7.4, https://matplotlib.org/</dc:title>
     </cc:Agent>
    </dc:creator>
   </cc:Work>
  </rdf:RDF>
 </metadata>
 <defs>
  <style type="text/css">*{stroke-linejoin: round; stroke-linecap: butt}</style>
 </defs>
 <g id="figure_1">
  <g id="patch_1">
   <path d="M 0 345.6 
L 460.8 345.6 
L 460.8 0 
L 0 0 
z
" style="fill: #ffffff"/>
  </g>
  <g id="axes_1">
   <g id="patch_2">
    <path d="M 57.6 307.584 
L 414.72 307.584 
L 414.72 41.472 
L 57.6 41.472 
z
" style="fill: #ffffff"/>
   </g>
   <g id="matplotlib.axis_1">
    <g id="xtick_1">
     <g id="line2d_1">
      <defs>
       <path id="mf627c9ae0f" d="M 0 0 
L 0 3.5 
" style="stroke: #000000; stroke-width: 0.8"/>
      </defs>
      <g>
       <use xlink:href="#mf627c9ae0f" x="73.832715" y="307.584" style="stroke: #000000; stroke-width: 0.8"/>
      </g>
     </g>
     <g id="text_1">
      <!-- 0.0000 -->
      <g transform="translate(56.337402 322.182437) scale(0.1 -0.1)">
       <defs>
        <path id="DejaVuSans-30" d="M 2034 4250 
Q 1547 4250 1301 3770 
Q 1056 3291 1056 2328 
Q 1056 1369 1301 889 
Q 1547 409 2034 409 
Q 2525 409 2770 889 
Q 3016 1369 3016 2328 
Q 3016 3291 2770 3770 
Q 2525 4250 2034 4250 
z
M 2034 4750 
Q 2819 4750 3233 4129 
Q 3647 3509 3647 2328 
Q 3647 1150 3233 529 
Q 2819 -91 2034 -91 
Q 1250 -91 836 529 
Q 422 1150 422 2328 
Q 422 3509 836 4129 
Q 1250 4750 2034 4750 
z
" transform="scale(0.015625)"/>
        <path id="DejaVuSans-2e" d="M 684 794 
L 1344 794 
L 1344 0 
L 684 0 
L 684 794 
z
" transform="scale(0.015625)"/>
       </defs>
       <use xlink:href="#DejaVuSans-30"/>
       <use xlink:href="#DejaVuSans-2e" x="63.623047"/>
       <use xlink:href="#DejaVuSans-30" x="95.410156"/>
       <use xlink:href="#DejaVuSans-30" x="159.033203"/>
       <use xlink:href="#DejaVuSans-30" x="222.65625"/>
       <use xlink:href="#DejaVuSans-30" x="286.279297"/>
      </g>
     </g>
    </g>
    <g id="xtick_2">
     <g id="line2d_2">
      <g>
       <use xlink:href="#mf627c9ae0f" x="135.172244" y="307.584" style="stroke: #000000; stroke-width: 0.8"/>
      </g>
     </g>
     <g id="text_2">
      <!-- 0.0005 -->
      <g transform="translate(117.676931 322.182437) scale(0.1 -0.1)">
       <defs>
        <path id="DejaVuSans-35" d="M 691 4666 
L 3169 4666 
L 3169 4134 
L 1269 4134 
L 1269 2991 
Q 1406 3038 1543 3061 
Q 1681 3084 1819 3084 
Q 2600 3084 3056 2656 
Q 3513 2228 3513 1497 
Q 3513 744 3044 326 
Q 2575 -91 1722 -91 
Q 1428 -91 1123 -41 
Q 819 9 494 109 
L 494 744 
Q 775 591 1075 516 
Q 1375 441 1709 441 
Q 2250 441 2565 725 
Q 2881 1009 2881 1497 
Q 2881 1984 2565 2268 
Q 2250 2553 1709 2553 
Q 1456 2553 1204 2497 
Q 953 2441 691 2322 
L 691 4666 
z
" transform="scale(0.015625)"/>
       </defs>
       <use xlink:href="#DejaVuSans-30"/>
       <use xlink:href="#DejaVuSans-2e" x="63.623047"/>
       <use xlink:href="#DejaVuSans-30" x="95.410156"/>
       <use xlink:href="#DejaVuSans-30" x="159.033203"/>
       <use xlink:href="#DejaVuSans-30" x="222.65625"/>
       <use xlink:href="#DejaVuSans-35" x="286.279297"/>
      </g>
     </g>
    </g>
    <g id="xtick_3">
     <g id="line2d_3">
      <g>
       <use xlink:href="#mf627c9ae0f" x="196.511772" y="307.584" style="stroke: #000000; stroke-width: 0.8"/>
      </g>
     </g>
     <g id="text_3">
      <!-- 0.0010 -->
      <g transform="translate(179.01646 322.182437) scale(0.1 -0.1)">
       <defs>
        <path id="DejaVuSans-31" d="M 794 531 
L 1825 531 
L 1825 4091 
L 703 3866 
L 703 4441 
L 1819 4666 
L 2450 4666 
L 2450 531 
L 3481 531 
L 3481 0 
L 794 0 
L 794 531 
z
" transform="scale(0.015625)"/>
       </defs>
       <use xlink:href="#DejaVuSans-30"/>
       <use xlink:href="#DejaVuSans-2e" x="63.623047"/>
       <use xlink:href="#DejaVuSans-30" x="95.410156"/>
       <use xlink:href="#DejaVuSans-30" x="159.033203"/>
       <use xlink:href="#DejaVuSans-31" x="222.65625"/>
       <use xlink:href="#DejaVuSans-30" x="286.279297"/>
      </g>
     </g>
    </g>
    <g id="xtick_4">
     <g id="line2d_4">
      <g>
       <use xlink:href="#mf627c9ae0f" x="257.851301" y="307.584" style="stroke: #000000; stroke-width: 0.8"/>
      </g>
     </g>
     <g id="text_4">
      <!-- 0.0015 -->
      <g transform="translate(240.355989 322.182437) scale(0.1 -0.1)">
       <use xlink:href="#DejaVuSans-30"/>
       <use xlink:href="#DejaVuSans-2e" x="63.623047"/>
       <use xlink:href="#DejaVuSans-30" x="95.410156"/>
       <use xlink:href="#DejaVuSans-30" x="159.033203"/>
       <use xlink:href="#DejaVuSans-31" x="222.65625"/>
       <use xlink:href="#DejaVuSans-35" x="286.279297"/>
      </g>
     </g>
    </g>
    <g id="xtick_5">
     <g id="line2d_5">
      <g>
       <use xlink:href="#mf627c9ae0f" x="319.19083" y="307.584" style="stroke: #000000; stroke-width: 0.8"/>
      </g>
     </g>
     <g id="text_5">
      <!-- 0.0020 -->
      <g transform="translate(301.695517 322.182437) scale(0.1 -0.1)">
       <defs>
        <path id="DejaVuSans-32" d="M 1228 531 
L 3431 531 
L 3431 0 
L 469 0 
L 469 531 
Q 828 903 1448 1529 
Q 2069 2156 2228 2338 
Q 2531 2678 2651 2914 
Q 2772 3150 2772 3378 
Q 2772 3750 2511 3984 
Q 2250 4219 1831 4219 
Q 1534 4219 1204 4116 
Q 875 4013 500 3803 
L 500 4441 
Q 881 4594 1212 4672 
Q 1544 4750 1819 4750 
Q 2544 4750 2975 4387 
Q 3406 4025 3406 3419 
Q 3406 3131 3298 2873 
Q 3191 2616 2906 2266 
Q 2828 2175 2409 1742 
Q 1991 1309 1228 531 
z
" transform="scale(0.015625)"/>
       </defs>
       <use xlink:href="#DejaVuSans-30"/>
       <use xlink:href="#DejaVuSans-2e" x="63.623047"/>
       <use xlink:href="#DejaVuSans-30" x="95.410156"/>
       <use xlink:href="#DejaVuSans-30" x="159.033203"/>
       <use xlink:href="#DejaVuSans-32" x="222.65625"/>
       <use xlink:href="#DejaVuSans-30" x="286.279297"/>
      </g>
     </g>
    </g>
    <g id="xtick_6">
     <g id="line2d_6">
      <g>
       <use xlink:href="#mf627c9ae0f" x="380.530358" y="307.584" style="stroke: #000000; stroke-width: 0.8"/>
      </g>
     </g>
     <g id="text_6">
      <!-- 0.0025 -->
      <g transform="translate(363.035046 322.182437) scale(0.1 -0.1)">
       <use xlink:href="#DejaVuSans-30"/>
       <use xlink:href="#DejaVuSans-2e" x="63.623047"/>
       <use xlink:href="#DejaVuSans-30" x="95.410156"/>
       <use xlink:href="#DejaVuSans-30" x="159.033203"/>
       <use xlink:href="#DejaVuSans-32" x="222.65625"/>
       <use xlink:href="#DejaVuSans-35" x="286.279297"/>
      </g>
     </g>
    </g>
    <g id="text_7">
     <!-- Learning rate -->
     <g transform="translate(202.706875 335.860562) scale(0.1 -0.1)">
      <defs>
       <path id="DejaVuSans-4c" d="M 628 4666 
L 1259 4666 
L 1259 531 
L 3531 531 
L 3531 0 
L 628 0 
L 628 4666 
z
" transform="scale(0.015625)"/>
       <path id="DejaVuSans-65" d="M 3597 1894 
L 3597 1613 
L 953 1613 
Q 991 1019 1311 708 
Q 1631 397 2203 397 
Q 2534 397 2845 478 
Q 3156 559 3463 722 
L 3463 178 
Q 3153 47 2828 -22 
Q 2503 -91 2169 -91 
Q 1331 -91 842 396 
Q 353 884 353 1716 
Q 353 2575 817 3079 
Q 1281 3584 2069 3584 
Q 2775 3584 3186 3129 
Q 3597 2675 3597 1894 
z
M 3022 2063 
Q 3016 2534 2758 2815 
Q 2500 3097 2075 3097 
Q 1594 3097 1305 2825 
Q 1016 2553 972 2059 
L 3022 2063 
z
" transform="scale(0.015625)"/>
       <path id="DejaVuSans-61" d="M 2194 1759 
Q 1497 1759 1228 1600 
Q 959 1441 959 1056 
Q 959 750 1161 570 
Q 1363 391 1709 391 
Q 2188 391 2477 730 
Q 2766 1069 2766 1631 
L 2766 1759 
L 2194 1759 
z
M 3341 1997 
L 3341 0 
L 2766 0 
L 2766 531 
Q 2569 213 2275 61 
Q 1981 -91 1556 -91 
Q 1019 -91 701 211 
Q 384 513 384 1019 
Q 384 1609 779 1909 
Q 1175 2209 1959 2209 
L 2766 2209 
L 2766 2266 
Q 2766 2663 2505 2880 
Q 2244 3097 1772 3097 
Q 1472 3097 1187 3025 
Q 903 2953 641 2809 
L 641 3341 
Q 956 3463 1253 3523 
Q 1550 3584 1831 3584 
Q 2591 3584 2966 3190 
Q 3341 2797 3341 1997 
z
" transform="scale(0.015625)"/>
       <path id="DejaVuSans-72" d="M 2631 2963 
Q 2534 3019 2420 3045 
Q 2306 3072 2169 3072 
Q 1681 3072 1420 2755 
Q 1159 2438 1159 1844 
L 1159 0 
L 581 0 
L 581 3500 
L 1159 3500 
L 1159 2956 
Q 1341 3275 1631 3429 
Q 1922 3584 2338 3584 
Q 2397 3584 2469 3576 
Q 2541 3569 2628 3553 
L 2631 2963 
z
" transform="scale(0.015625)"/>
       <path id="DejaVuSans-6e" d="M 3513 2113 
L 3513 0 
L 2938 0 
L 2938 2094 
Q 2938 2591 2744 2837 
Q 2550 3084 2163 3084 
Q 1697 3084 1428 2787 
Q 1159 2491 1159 1978 
L 1159 0 
L 581 0 
L 581 3500 
L 1159 3500 
L 1159 2956 
Q 1366 3272 1645 3428 
Q 1925 3584 2291 3584 
Q 2894 3584 3203 3211 
Q 3513 2838 3513 2113 
z
" transform="scale(0.015625)"/>
       <path id="DejaVuSans-69" d="M 603 3500 
L 1178 3500 
L 1178 0 
L 603 0 
L 603 3500 
z
M 603 4863 
L 1178 4863 
L 1178 4134 
L 603 4134 
L 603 4863 
z
" transform="scale(0.015625)"/>
       <path id="DejaVuSans-67" d="M 2906 1791 
Q 2906 2416 2648 2759 
Q 2391 3103 1925 3103 
Q 1463 3103 1205 2759 
Q 947 2416 947 1791 
Q 947 1169 1205 825 
Q 1463 481 1925 481 
Q 2391 481 2648 825 
Q 2906 1169 2906 1791 
z
M 3481 434 
Q 3481 -459 3084 -895 
Q 2688 -1331 1869 -1331 
Q 1566 -1331 1297 -1286 
Q 1028 -1241 775 -1147 
L 775 -588 
Q 1028 -725 1275 -790 
Q 1522 -856 1778 -856 
Q 2344 -856 2625 -561 
Q 2906 -266 2906 331 
L 2906 616 
Q 2728 306 2450 153 
Q 2172 0 1784 0 
Q 1141 0 747 490 
Q 353 981 353 1791 
Q 353 2603 747 3093 
Q 1141 3584 1784 3584 
Q 2172 3584 2450 3431 
Q 2728 3278 2906 2969 
L 2906 3500 
L 3481 3500 
L 3481 434 
z
" transform="scale(0.015625)"/>
       <path id="DejaVuSans-20" transform="scale(0.015625)"/>
       <path id="DejaVuSans-74" d="M 1172 4494 
L 1172 3500 
L 2356 3500 
L 2356 3053 
L 1172 3053 
L 1172 1153 
Q 1172 725 1289 603 
Q 1406 481 1766 481 
L 2356 481 
L 2356 0 
L 1766 0 
Q 1100 0 847 248 
Q 594 497 594 1153 
L 594 3053 
L 172 3053 
L 172 3500 
L 594 3500 
L 594 4494 
L 1172 4494 
z
" transform="scale(0.015625)"/>
      </defs>
      <use xlink:href="#DejaVuSans-4c"/>
      <use xlink:href="#DejaVuSans-65" x="53.962891"/>
      <use xlink:href="#DejaVuSans-61" x="115.486328"/>
      <use xlink:href="#DejaVuSans-72" x="176.765625"/>
      <use xlink:href="#DejaVuSans-6e" x="216.128906"/>
      <use xlink:href="#DejaVuSans-69" x="279.507812"/>
      <use xlink:href="#DejaVuSans-6e" x="307.291016"/>
      <use xlink:href="#DejaVuSans-67" x="370.669922"/>
      <use xlink:href="#DejaVuSans-20" x="434.146484"/>
      <use xlink:href="#DejaVuSans-72" x="465.933594"/>
      <use xlink:href="#DejaVuSans-61" x="507.046875"/>
      <use xlink:href="#DejaVuSans-74" x="568.326172"/>
      <use xlink:href="#DejaVuSans-65" x="607.535156"/>
     </g>
    </g>
   </g>
   <g id="matplotlib.axis_2">
    <g id="ytick_1">
     <g id="line2d_7">
      <defs>
       <path id="ma48db8af3e" d="M 0 0 
L -3.5 0 
" style="stroke: #000000; stroke-width: 0.8"/>
      </defs>
      <g>
       <use xlink:href="#ma48db8af3e" x="57.6" y="306.358851" style="stroke: #000000; stroke-width: 0.8"/>
      </g>
     </g>
     <g id="text_8">
      <!-- 0 -->
      <g transform="translate(44.2375 310.15807) scale(0.1 -0.1)">
       <use xlink:href="#DejaVuSans-30"/>
      </g>
     </g>
    </g>
    <g id="ytick_2">
     <g id="line2d_8">
      <g>
       <use xlink:href="#ma48db8af3e" x="57.6" y="259.899819" style="stroke: #000000; stroke-width: 0.8"/>
      </g>
     </g>
     <g id="text_9">
      <!-- 1 -->
      <g transform="translate(44.2375 263.699038) scale(0.1 -0.1)">
       <use xlink:href="#DejaVuSans-31"/>
      </g>
     </g>
    </g>
    <g id="ytick_3">
     <g id="line2d_9">
      <g>
       <use xlink:href="#ma48db8af3e" x="57.6" y="213.440788" style="stroke: #000000; stroke-width: 0.8"/>
      </g>
     </g>
     <g id="text_10">
      <!-- 2 -->
      <g transform="translate(44.2375 217.240007) scale(0.1 -0.1)">
       <use xlink:href="#DejaVuSans-32"/>
      </g>
     </g>
    </g>
    <g id="ytick_4">
     <g id="line2d_10">
      <g>
       <use xlink:href="#ma48db8af3e" x="57.6" y="166.981756" style="stroke: #000000; stroke-width: 0.8"/>
      </g>
     </g>
     <g id="text_11">
      <!-- 3 -->
      <g transform="translate(44.2375 170.780975) scale(0.1 -0.1)">
       <defs>
        <path id="DejaVuSans-33" d="M 2597 2516 
Q 3050 2419 3304 2112 
Q 3559 1806 3559 1356 
Q 3559 666 3084 287 
Q 2609 -91 1734 -91 
Q 1441 -91 1130 -33 
Q 819 25 488 141 
L 488 750 
Q 750 597 1062 519 
Q 1375 441 1716 441 
Q 2309 441 2620 675 
Q 2931 909 2931 1356 
Q 2931 1769 2642 2001 
Q 2353 2234 1838 2234 
L 1294 2234 
L 1294 2753 
L 1863 2753 
Q 2328 2753 2575 2939 
Q 2822 3125 2822 3475 
Q 2822 3834 2567 4026 
Q 2313 4219 1838 4219 
Q 1578 4219 1281 4162 
Q 984 4106 628 3988 
L 628 4550 
Q 988 4650 1302 4700 
Q 1616 4750 1894 4750 
Q 2613 4750 3031 4423 
Q 3450 4097 3450 3541 
Q 3450 3153 3228 2886 
Q 3006 2619 2597 2516 
z
" transform="scale(0.015625)"/>
       </defs>
       <use xlink:href="#DejaVuSans-33"/>
      </g>
     </g>
    </g>
    <g id="ytick_5">
     <g id="line2d_11">
      <g>
       <use xlink:href="#ma48db8af3e" x="57.6" y="120.522725" style="stroke: #000000; stroke-width: 0.8"/>
      </g>
     </g>
     <g id="text_12">
      <!-- 4 -->
      <g transform="translate(44.2375 124.321943) scale(0.1 -0.1)">
       <defs>
        <path id="DejaVuSans-34" d="M 2419 4116 
L 825 1625 
L 2419 1625 
L 2419 4116 
z
M 2253 4666 
L 3047 4666 
L 3047 1625 
L 3713 1625 
L 3713 1100 
L 3047 1100 
L 3047 0 
L 2419 0 
L 2419 1100 
L 313 1100 
L 313 1709 
L 2253 4666 
z
" transform="scale(0.015625)"/>
       </defs>
       <use xlink:href="#DejaVuSans-34"/>
      </g>
     </g>
    </g>
    <g id="ytick_6">
     <g id="line2d_12">
      <g>
       <use xlink:href="#ma48db8af3e" x="57.6" y="74.063693" style="stroke: #000000; stroke-width: 0.8"/>
      </g>
     </g>
     <g id="text_13">
      <!-- 5 -->
      <g transform="translate(44.2375 77.862912) scale(0.1 -0.1)">
       <use xlink:href="#DejaVuSans-35"/>
      </g>
     </g>
    </g>
    <g id="text_14">
     <!-- Loss -->
     <g transform="translate(38.157812 185.495187) rotate(-90) scale(0.1 -0.1)">
      <defs>
       <path id="DejaVuSans-6f" d="M 1959 3097 
Q 1497 3097 1228 2736 
Q 959 2375 959 1747 
Q 959 1119 1226 758 
Q 1494 397 1959 397 
Q 2419 397 2687 759 
Q 2956 1122 2956 1747 
Q 2956 2369 2687 2733 
Q 2419 3097 1959 3097 
z
M 1959 3584 
Q 2709 3584 3137 3096 
Q 3566 2609 3566 1747 
Q 3566 888 3137 398 
Q 2709 -91 1959 -91 
Q 1206 -91 779 398 
Q 353 888 353 1747 
Q 353 2609 779 3096 
Q 1206 3584 1959 3584 
z
" transform="scale(0.015625)"/>
       <path id="DejaVuSans-73" d="M 2834 3397 
L 2834 2853 
Q 2591 2978 2328 3040 
Q 2066 3103 1784 3103 
Q 1356 3103 1142 2972 
Q 928 2841 928 2578 
Q 928 2378 1081 2264 
Q 1234 2150 1697 2047 
L 1894 2003 
Q 2506 1872 2764 1633 
Q 3022 1394 3022 966 
Q 3022 478 2636 193 
Q 2250 -91 1575 -91 
Q 1294 -91 989 -36 
Q 684 19 347 128 
L 347 722 
Q 666 556 975 473 
Q 1284 391 1588 391 
Q 1994 391 2212 530 
Q 2431 669 2431 922 
Q 2431 1156 2273 1281 
Q 2116 1406 1581 1522 
L 1381 1569 
Q 847 1681 609 1914 
Q 372 2147 372 2553 
Q 372 3047 722 3315 
Q 1072 3584 1716 3584 
Q 2034 3584 2315 3537 
Q 2597 3491 2834 3397 
z
" transform="scale(0.015625)"/>
      </defs>
      <use xlink:href="#DejaVuSans-4c"/>
      <use xlink:href="#DejaVuSans-6f" x="53.962891"/>
      <use xlink:href="#DejaVuSans-73" x="115.144531"/>
      <use xlink:href="#DejaVuSans-73" x="167.244141"/>
     </g>
    </g>
   </g>
   <g id="line2d_13">
    <path d="M 73.832727 149.614686 
L 73.832885 53.568 
L 73.943773 290.921642 
L 73.991181 283.923434 
L 74.020308 292.814828 
L 74.05497 289.794219 
L 74.128033 294.161058 
L 74.090489 286.383721 
L 74.165548 289.277353 
L 74.257216 286.443238 
L 74.18838 293.611445 
L 74.276777 286.775176 
L 74.304139 292.722666 
L 74.277505 286.031029 
L 74.404204 291.265525 
L 74.416028 293.601461 
L 74.440911 287.956416 
L 74.473645 289.261432 
L 74.475748 287.28676 
L 74.565793 293.817435 
L 74.582186 291.19787 
L 74.673941 294.665359 
L 74.632286 288.000658 
L 74.694162 292.314534 
L 74.76846 287.743449 
L 74.783915 292.477331 
L 74.805983 290.128435 
L 74.912681 286.770241 
L 74.847501 294.489052 
L 74.921563 289.187909 
L 75.042913 293.555867 
L 74.995302 288.642928 
L 75.043905 293.340265 
L 75.120644 286.181437 
L 75.06795 293.909195 
L 75.155932 288.472694 
L 75.157016 288.469985 
L 75.194415 292.81304 
L 75.264181 287.392212 
L 75.265354 287.225457 
L 75.33137 293.599475 
L 75.43943 290.700662 
L 75.361123 294.808987 
L 75.4553 292.62104 
L 75.523133 295.488 
L 75.555281 291.11649 
L 75.556692 291.36357 
L 75.585167 289.422001 
L 75.659924 294.018965 
L 75.661422 294.170039 
L 75.671937 290.345438 
L 75.751967 293.411152 
L 75.825662 285.154663 
L 75.865227 290.018013 
L 75.924339 293.16003 
L 75.957146 288.327152 
L 75.976373 290.313434 
L 75.990466 287.583188 
L 76.065989 291.250014 
L 76.09916 289.327856 
L 76.195844 293.45601 
L 76.11593 288.819126 
L 76.232908 291.953428 
L 76.333249 288.065724 
L 76.31082 294.106404 
L 76.347627 289.535161 
L 76.372469 292.154558 
L 76.382891 289.091101 
L 76.45491 289.642059 
L 76.496038 287.73213 
L 76.474312 292.575019 
L 76.551139 290.792122 
L 76.63938 292.494261 
L 76.587 287.726792 
L 76.660147 291.029596 
L 76.761507 287.910164 
L 76.73286 292.064555 
L 76.773526 289.970424 
L 76.812321 286.902648 
L 76.888948 291.146537 
L 76.90149 289.626857 
L 76.964979 292.708525 
L 76.967545 292.515811 
L 77.003701 294.677484 
L 77.058717 291.056921 
L 77.06136 291.227614 
L 77.087915 288.424882 
L 77.07461 292.116801 
L 77.171629 290.919105 
L 77.221222 294.121502 
L 77.271551 289.571036 
L 77.280012 290.387934 
L 77.351331 292.281613 
L 77.305519 290.014644 
L 77.388999 290.492014 
L 77.391913 290.266862 
L 77.447737 293.445408 
L 77.465547 292.545968 
L 77.522527 295.305742 
L 77.565083 291.612722 
L 77.577332 293.195041 
L 77.6423 290.055158 
L 77.605038 293.553951 
L 77.698884 292.160866 
L 77.705222 292.705768 
L 77.759523 289.920394 
L 77.769184 290.37122 
L 77.791819 287.961415 
L 77.834202 290.434922 
L 77.880353 289.98026 
L 77.923684 293.405805 
L 77.95733 289.576481 
L 77.984447 289.588826 
L 78.028892 286.533754 
L 77.998072 289.939831 
L 78.108694 287.722559 
L 78.236659 293.400543 
L 78.247494 292.635046 
L 78.331454 290.060338 
L 78.357322 291.758104 
L 78.368454 292.186123 
L 78.383339 290.433432 
L 78.435823 291.814096 
L 78.462292 288.094249 
L 78.546474 290.966827 
L 78.632186 292.610282 
L 78.593034 289.638317 
L 78.663739 292.02581 
L 78.727469 294.325347 
L 78.679594 291.19382 
L 78.767727 291.83291 
L 78.882218 289.237811 
L 78.836926 291.976312 
L 78.886355 289.770626 
L 78.923748 287.741054 
L 78.999365 290.774938 
L 79.110577 288.818383 
L 79.080402 291.522896 
L 79.11923 288.908884 
L 79.140925 289.998357 
L 79.188969 287.746509 
L 79.241876 289.681955 
L 79.331218 287.887936 
L 79.313232 290.896626 
L 79.371902 288.466219 
L 79.458782 292.211899 
L 79.4865 289.679627 
L 79.542346 286.61012 
L 79.514354 290.336271 
L 79.598744 288.635832 
L 79.674808 291.3948 
L 79.718034 289.728568 
L 79.727683 288.433113 
L 79.800558 290.530477 
L 79.82996 289.257821 
L 79.954034 291.491716 
L 79.874334 288.171214 
L 79.95905 291.287418 
L 80.019564 288.284733 
L 79.979156 291.89629 
L 80.085795 289.498563 
L 80.204715 293.759162 
L 80.096047 289.41643 
L 80.220392 292.266258 
L 80.331217 288.510919 
L 80.352544 288.745737 
L 80.416945 291.948027 
L 80.454805 288.25203 
L 80.460231 288.073554 
L 80.520215 289.681734 
L 80.525695 289.651921 
L 80.53118 290.057887 
L 80.652981 285.88059 
L 80.65857 286.295552 
L 80.680971 286.245506 
L 81.049548 291.754386 
L 81.174759 294.179637 
L 81.180775 293.633554 
L 81.27771 289.878127 
L 81.302142 291.333391 
L 81.487962 287.246923 
L 81.53198 288.443561 
L 81.633548 289.436294 
L 81.608031 287.475436 
L 81.63994 288.664249 
L 81.691267 286.625682 
L 81.742931 289.053629 
L 81.7559 288.097108 
L 81.775394 286.147729 
L 81.867 288.512847 
L 81.873583 288.369984 
L 81.913198 289.663794 
L 81.933079 290.578132 
L 81.979657 288.649399 
L 82.026503 290.454205 
L 82.039937 289.598911 
L 82.114219 291.062364 
L 82.127797 290.141979 
L 82.216597 292.113507 
L 82.148205 288.755202 
L 82.244111 291.175053 
L 82.27863 289.585059 
L 82.355072 290.455622 
L 82.362056 290.539276 
L 82.390047 289.598353 
L 82.397059 289.59482 
L 82.404077 289.939135 
L 82.439253 287.238797 
L 82.474573 288.188295 
L 82.495835 287.33792 
L 82.552789 288.710037 
L 82.588575 287.996789 
L 82.59575 287.986611 
L 82.675062 288.279749 
L 82.733195 285.511989 
L 82.828476 286.691307 
L 82.843224 285.559695 
L 82.850608 285.414231 
L 82.880203 286.916913 
L 83.052266 291.237996 
L 83.204544 288.014728 
L 83.067382 291.458099 
L 83.21991 288.304508 
L 83.258434 288.662724 
L 83.273887 287.088757 
L 83.367144 284.501841 
L 83.390602 285.880561 
L 83.398434 285.74695 
L 83.429826 286.810409 
L 83.524623 291.427729 
L 83.58834 289.159294 
L 83.708942 284.589669 
L 83.814668 287.371497 
L 83.863846 287.275698 
L 83.880293 286.934661 
L 83.946348 288.071825 
L 83.96293 287.486145 
L 84.037885 288.543582 
L 84.054616 286.829671 
L 84.062993 287.075531 
L 84.189462 288.817587 
L 84.206442 288.271836 
L 84.334685 284.255471 
L 84.351903 284.313897 
L 84.360523 284.192811 
L 84.36915 283.060407 
L 84.438419 286.179439 
L 84.44711 286.140402 
L 84.525647 288.110701 
L 84.56953 287.836556 
L 84.666706 286.376516 
L 84.631268 288.033929 
L 84.702261 287.299806 
L 84.729003 286.710379 
L 84.809626 289.046596 
L 84.872745 284.965423 
L 84.927136 285.119068 
L 84.936227 284.927059 
L 84.954432 285.757597 
L 84.99093 285.514833 
L 85.000074 286.17195 
L 85.027549 284.741848 
L 85.091921 285.814041 
L 85.119622 284.804631 
L 85.156663 285.990162 
L 85.203135 285.665701 
L 85.212453 285.200212 
L 85.268517 286.176184 
L 85.296653 285.806007 
L 85.334275 287.85734 
L 85.409889 285.918803 
L 85.486001 287.071654 
L 85.438373 285.606393 
L 85.533825 286.616219 
L 85.543413 286.279147 
L 85.591472 288.238058 
L 85.601108 288.304633 
L 85.649404 284.963748 
L 85.717352 285.938351 
L 85.844579 289.303899 
L 85.864273 288.467095 
L 85.893874 289.593461 
L 85.923548 287.748808 
L 85.963227 285.025833 
L 86.042977 286.709004 
L 86.183802 288.839535 
L 86.224336 289.023328 
L 86.326252 285.750528 
L 86.33649 285.827663 
L 86.346736 285.386801 
L 86.408388 283.460723 
L 86.459997 284.559093 
L 86.491064 285.680541 
L 86.553428 284.154745 
L 86.563852 283.484265 
L 86.64755 284.726106 
L 86.66856 285.256655 
L 86.710685 283.957148 
L 86.731799 284.724054 
L 86.752947 282.550427 
L 86.82724 285.234149 
L 86.934115 286.81625 
L 86.955596 286.457004 
L 86.966349 285.875893 
L 87.020248 287.512269 
L 87.041869 286.935355 
L 87.161422 287.777145 
L 87.074368 286.47598 
L 87.172344 287.618536 
L 87.249049 288.226252 
L 87.293079 286.909112 
L 87.526614 283.22321 
L 87.337252 287.706777 
L 87.560305 283.551949 
L 87.582812 283.965397 
L 87.650554 286.429363 
L 87.71863 285.403756 
L 87.764201 283.588357 
L 87.85579 285.013704 
L 87.890291 286.32798 
L 87.924877 284.373569 
L 87.947982 284.714576 
L 88.099088 282.60772 
L 87.994305 284.81578 
L 88.122478 283.782137 
L 88.134188 283.794381 
L 88.181122 283.25043 
L 88.204647 284.199755 
L 88.22821 285.129242 
L 88.275453 283.997114 
L 88.299132 282.624108 
L 88.382316 284.155377 
L 88.394239 284.180101 
L 88.406171 283.610552 
L 88.442026 285.467939 
L 88.465979 285.311596 
L 88.550122 287.626659 
L 88.610521 286.332819 
L 88.634749 286.337141 
L 88.659018 284.06322 
L 88.732062 281.797671 
L 88.780958 281.830614 
L 88.854604 281.21349 
L 88.953362 284.29848 
L 88.978153 281.99722 
L 89.065241 283.887926 
L 89.077723 283.536893 
L 89.127754 284.505642 
L 89.140287 284.34705 
L 89.278833 287.353455 
L 89.29149 287.253033 
L 89.304157 286.958576 
L 89.342222 288.565608 
L 89.36765 288.94931 
L 89.38038 288.563197 
L 89.469781 285.77839 
L 89.54682 285.953356 
L 89.702038 287.788201 
L 89.754118 287.345147 
L 89.767164 287.899228 
L 89.871922 289.316745 
L 89.885065 288.444117 
L 90.433305 276.043733 
L 89.911384 288.816604 
L 90.474148 276.630989 
L 90.693679 275.705392 
L 90.707495 275.832112 
L 90.749012 275.306737 
L 90.832354 274.683743 
L 90.888142 274.774404 
L 90.916105 274.953905 
L 90.930104 275.047832 
L 90.972169 274.876385 
L 91.070723 273.884727 
L 91.098986 273.90716 
L 91.113134 274.120843 
L 91.15565 273.603569 
L 91.198269 273.72887 
L 91.3698 273.894677 
L 91.398553 273.832992 
L 91.485094 273.91314 
L 91.557537 273.991194 
L 91.572062 273.917971 
L 91.630278 273.846296 
L 91.688685 273.890171 
L 91.939063 274.139884 
L 92.028267 274.701066 
L 92.073034 274.463214 
L 92.192951 273.529952 
L 92.343957 273.073617 
L 92.223053 273.541803 
L 92.359126 273.165976 
L 92.511498 273.752169 
L 92.526804 273.58509 
L 92.542123 273.435475 
L 92.588154 273.603858 
L 92.649705 273.464927 
L 92.665124 273.468622 
L 92.680556 273.390032 
L 92.711457 273.32329 
L 92.74241 273.449075 
L 93.023275 274.173343 
L 93.07049 274.005986 
L 93.133624 274.049776 
L 93.244607 273.897436 
L 93.260514 273.917422 
L 93.292366 273.850221 
L 93.340243 273.704137 
L 93.4203 273.768917 
L 93.9405 273.998371 
L 94.02302 273.949888 
L 94.056123 274.082251 
L 94.122491 273.702992 
L 94.17241 273.914943 
L 94.23916 273.702511 
L 94.306129 273.743133 
L 94.322906 273.731109 
L 94.339696 273.79513 
L 94.373318 273.825941 
L 94.457615 273.955963 
L 94.474515 273.841229 
L 94.49143 273.69313 
L 94.576211 273.811992 
L 94.644286 273.90411 
L 94.678407 273.848677 
L 94.712585 273.757591 
L 94.781108 273.80768 
L 94.815453 273.931891 
L 94.849855 273.758802 
L 94.918828 273.618938 
L 94.9534 273.748246 
L 95.144559 273.927349 
L 95.23202 273.816742 
L 95.267105 274.275558 
L 95.390356 273.960567 
L 95.31984 274.326116 
L 95.408021 274.068335 
L 95.425701 274.111732 
L 95.514316 274.055315 
L 95.567659 274.122965 
L 95.67474 273.808426 
L 95.692638 273.816129 
L 95.728479 273.769207 
L 95.764377 273.915471 
L 95.782349 273.826062 
L 95.944757 274.083704 
L 95.962876 274.066571 
L 96.017323 273.973407 
L 96.053696 274.115518 
L 96.071904 274.164613 
L 96.090128 274.02831 
L 96.108366 274.08161 
L 96.218111 273.910025 
L 96.163172 274.166914 
L 96.236455 273.944066 
L 96.402223 274.060943 
L 96.439226 273.724667 
L 96.513415 274.029824 
L 96.699955 274.060409 
L 96.775 274.345507 
L 96.812615 274.100096 
L 96.850291 274.143318 
L 96.906922 273.855997 
L 96.92583 273.707539 
L 97.020601 273.749313 
L 97.345743 274.136235 
L 97.36501 274.293825 
L 97.403592 273.88644 
L 97.422907 274.13002 
L 97.461584 273.33504 
L 97.519718 273.885948 
L 97.675444 274.28252 
L 97.694981 274.341681 
L 97.734104 274.138191 
L 97.792909 273.990429 
L 97.851859 274.011432 
L 98.089111 274.141365 
L 98.108988 274.039039 
L 98.14879 273.73562 
L 98.228589 273.836227 
L 98.308651 273.922895 
L 98.368869 274.082654 
L 98.469563 273.476642 
L 98.530177 273.495755 
L 98.550415 273.619707 
L 98.590941 273.391169 
L 98.631533 273.503319 
L 98.672191 273.594253 
L 98.77413 274.051261 
L 98.815022 273.998107 
L 98.917546 273.633357 
L 98.958674 273.722606 
L 98.979263 273.803456 
L 98.999869 273.610698 
L 99.041131 273.636252 
L 99.144584 273.100993 
L 99.310991 273.637182 
L 99.352764 272.902458 
L 99.436515 273.337659 
L 99.52054 273.437176 
L 99.8381 273.810911 
L 100.073469 273.799308 
L 100.094971 273.859711 
L 100.116492 273.683411 
L 100.138029 273.631553 
L 100.159585 273.743713 
L 100.181158 273.719657 
L 100.224357 273.863345 
L 100.267627 273.741257 
L 100.35438 273.677022 
L 100.376113 273.695477 
L 100.550617 273.827319 
L 100.748306 273.969588 
L 100.836637 274.127784 
L 100.858765 274.024473 
L 101.036442 274.017346 
L 101.058733 274.085406 
L 101.148083 274.014579 
L 101.260182 274.086278 
L 101.282657 273.933316 
L 101.327662 274.205415 
L 101.350192 274.104937 
L 101.372741 274.183951 
L 101.395308 274.071034 
L 101.417894 273.85825 
L 101.508422 273.958544 
L 101.713198 274.022512 
L 101.850556 274.254346 
L 101.919489 274.214112 
L 101.942504 274.268685 
L 101.965538 274.449035 
L 101.988591 273.870373 
L 102.034753 273.570677 
L 102.104139 273.679103 
L 102.173696 273.567376 
L 102.220162 273.739562 
L 102.243424 273.721385 
L 102.266704 273.784512 
L 102.290004 273.985955 
L 102.336661 273.547532 
L 102.594644 274.039371 
L 102.618212 274.000503 
L 102.6418 273.689017 
L 102.71268 273.769664 
L 102.736345 273.97337 
L 102.8312 273.902197 
L 103.021844 274.09453 
L 103.045763 273.817115 
L 103.117636 274.049391 
L 103.141633 274.119777 
L 103.16565 273.937673 
L 103.286029 273.758099 
L 103.310164 273.828826 
L 103.334318 273.905948 
L 103.358493 273.803824 
L 103.45539 273.645576 
L 103.479663 273.651124 
L 103.699025 273.693392 
L 103.723498 273.629344 
L 103.772505 273.726884 
L 103.797039 273.729511 
L 103.895375 274.28102 
L 103.944663 273.969138 
L 104.018748 273.61042 
L 104.068239 273.684285 
L 104.2172 273.97769 
L 104.366895 273.159239 
L 104.467101 273.370215 
L 104.744366 273.621594 
L 104.795047 273.381793 
L 104.871224 273.475168 
L 105.024141 273.616771 
L 105.07528 273.549929 
L 105.126504 273.641364 
L 105.35805 274.124636 
L 105.383883 273.968422 
L 105.461509 273.45869 
L 105.513365 273.52285 
L 105.591309 273.913745 
L 105.643379 273.736468 
L 105.721643 273.798967 
L 105.773926 273.24973 
L 105.826295 273.136353 
L 105.957593 273.519081 
L 106.063019 273.246388 
L 106.08943 273.280389 
L 106.274911 273.706032 
L 106.301495 273.548675 
L 106.328101 273.157283 
L 106.40805 273.29832 
L 106.756774 273.661413 
L 106.864823 273.823977 
L 106.89189 273.746187 
L 106.946092 273.52187 
L 107.027562 273.611125 
L 107.245794 273.683423 
L 107.273174 273.502041 
L 107.328001 273.798503 
L 107.355448 273.919182 
L 107.382918 273.834839 
L 107.437924 273.497804 
L 107.493021 273.722449 
L 107.603487 273.975923 
L 107.686573 273.905796 
L 107.825506 273.560974 
L 107.85336 273.611107 
L 107.909139 273.546481 
L 108.133167 273.738659 
L 108.302154 273.829625 
L 108.415275 273.577991 
L 108.443613 273.610119 
L 108.500359 273.735403 
L 108.528767 273.652524 
L 108.61413 273.717222 
L 108.671155 273.434485 
L 108.785487 273.423676 
L 108.900193 273.343582 
L 108.928929 273.390678 
L 109.246577 273.763149 
L 109.333706 273.619705 
L 109.391912 273.686535 
L 109.5671 274.066125 
L 109.596382 274.270938 
L 109.655018 273.941635 
L 109.684372 273.686142 
L 109.71375 274.098751 
L 109.743152 274.015244 
L 109.802029 273.738348 
L 109.861002 274.018767 
L 109.979238 274.194229 
L 110.008858 274.095705 
L 110.06817 273.918426 
L 110.157321 273.967876 
L 110.216876 274.119134 
L 110.24669 274.256626 
L 110.276529 273.97472 
L 110.306393 274.196396 
L 110.42609 273.621106 
L 110.456076 273.706195 
L 110.516122 273.896347 
L 110.606374 273.844709 
L 110.727057 273.880495 
L 110.757289 273.739056 
L 110.817828 273.859598 
L 110.848135 273.922638 
L 110.939205 273.685954 
L 110.969611 273.702551 
L 111.091486 273.745105 
L 111.152573 274.035309 
L 111.183154 273.894245 
L 111.275048 273.532783 
L 111.305729 273.670512 
L 111.428707 273.797276 
L 111.582996 274.1461 
L 111.61393 274.118518 
L 111.706884 273.642297 
L 111.800066 273.726203 
L 112.018384 273.828377 
L 112.049675 273.907776 
L 112.080991 273.735409 
L 112.237957 273.017665 
L 112.300924 273.187581 
L 112.395568 274.134462 
L 112.458793 274.011778 
L 112.585555 272.02972 
L 112.61731 272.197334 
L 112.776478 272.499676 
L 112.80839 271.85486 
L 112.904282 272.134029 
L 112.968341 272.508986 
L 113.096775 271.9146 
L 113.22563 272.425026 
L 113.25791 272.50261 
L 113.290217 272.308292 
L 113.322549 272.252263 
L 113.354909 272.412952 
L 113.387294 272.567012 
L 113.452146 272.370405 
L 113.517103 272.53844 
L 113.549622 272.823351 
L 113.582167 272.737401 
L 113.712615 271.721587 
L 113.745294 271.75638 
L 113.909091 272.18261 
L 113.941931 271.84308 
L 114.007691 272.01244 
L 114.205621 272.658 
L 114.238704 272.386141 
L 114.338115 272.201752 
L 114.404525 272.345969 
L 114.471044 272.867905 
L 114.537672 272.623513 
L 114.571027 272.539897 
L 114.60441 272.038743 
L 114.671256 272.221011 
L 114.906084 272.873996 
L 114.939741 272.666333 
L 115.007137 272.928141 
L 115.040877 272.866302 
L 115.074644 272.99226 
L 115.108439 272.910595 
L 115.345781 273.113591 
L 115.379798 272.662997 
L 115.447916 272.918849 
L 115.652941 273.30856 
L 115.68721 273.239699 
L 115.755832 273.291564 
L 116.031447 273.709788 
L 116.169933 274.183788 
L 116.274096 272.739144 
L 116.308874 273.036203 
L 116.378515 272.89453 
L 116.413378 272.981568 
L 116.553118 273.263055 
L 116.62316 273.119467 
L 116.693316 272.807432 
L 116.728438 272.91335 
L 116.833975 273.178129 
L 116.904477 272.274217 
L 116.975095 272.418139 
L 117.081238 272.374025 
L 117.22317 272.789475 
L 117.329924 273.29001 
L 117.436941 273.261127 
L 117.759573 273.52006 
L 117.831593 273.822171 
L 117.867647 273.620721 
L 117.939844 273.533134 
L 117.975987 273.630743 
L 118.193467 274.132358 
L 118.229817 273.959718 
L 118.266198 274.133452 
L 118.339048 274.352761 
L 118.375518 274.129971 
L 118.668356 273.82948 
L 118.741865 273.395854 
L 118.815496 273.424688 
L 118.852356 273.324461 
L 118.889247 273.414141 
L 119.074153 273.88714 
L 119.222625 273.442908 
L 119.483624 273.848414 
L 119.595939 273.772222 
L 119.633439 273.809055 
L 119.746123 273.904874 
L 119.8214 273.856723 
L 119.972324 274.151481 
L 120.047972 273.31619 
L 120.161676 273.572865 
L 120.27566 273.610989 
L 120.313716 273.676594 
L 120.351805 273.604913 
L 120.428074 273.417759 
L 120.466256 273.591348 
L 120.542713 273.534845 
L 120.657635 273.733026 
L 120.696005 273.639892 
L 120.772839 273.689849 
L 120.811303 273.677483 
L 120.849799 273.812019 
L 120.888326 273.686861 
L 120.926885 273.48116 
L 120.965476 273.59314 
L 121.004098 273.691242 
L 121.120154 273.20968 
L 121.27534 273.910864 
L 121.392064 274.255393 
L 121.431036 274.056187 
L 121.509075 273.585726 
L 121.548143 273.601312 
L 121.626374 273.728196 
L 121.665537 273.557617 
L 121.704733 273.8201 
L 121.743961 273.711869 
L 121.783221 273.59779 
L 121.861838 274.142264 
L 121.980005 273.436695 
L 122.138013 273.672869 
L 122.296539 273.441887 
L 122.375997 273.36768 
L 122.455586 273.650861 
L 122.495429 273.654235 
L 122.655128 273.517432 
L 122.735175 273.364505 
L 122.775247 273.392167 
L 123.056674 274.010487 
L 123.09701 272.960647 
L 123.17778 273.190198 
L 123.299185 274.224687 
L 123.339719 274.134475 
L 123.502189 273.520997 
L 123.54289 273.535773 
L 123.624392 273.781204 
L 123.706027 272.733766 
L 123.787796 272.98714 
L 123.869699 272.931553 
L 124.075045 273.529603 
L 124.198657 273.39693 
L 124.281234 273.590101 
L 124.488269 272.524715 
L 124.529778 272.552943 
L 124.779546 272.94191 
L 124.821294 272.868569 
L 124.988626 274.454206 
L 125.114486 272.750276 
L 125.240655 273.080939 
L 125.28278 272.85924 
L 125.32494 272.989403 
L 125.451627 273.22762 
L 125.578626 273.009469 
L 125.663465 273.051136 
L 125.705937 272.652554 
L 125.748444 273.337702 
L 125.790985 273.010917 
L 125.9615 272.189813 
L 126.17543 272.7068 
L 126.347207 271.817455 
L 126.390239 271.943932 
L 126.433306 271.936922 
L 126.476409 271.555342 
L 126.519547 271.64327 
L 126.735768 272.17691 
L 126.865926 272.57717 
L 126.909383 272.844714 
L 126.952876 272.510996 
L 127.214582 273.339784 
L 127.345918 272.987694 
L 127.389768 273.064036 
L 127.653627 273.317179 
L 127.830254 272.458734 
L 127.918785 272.574763 
L 128.229788 273.137032 
L 128.274363 272.949465 
L 128.318974 272.778932 
L 128.363622 272.834094 
L 128.677183 273.210159 
L 128.722124 273.175735 
L 128.812118 272.830989 
L 128.85717 272.857394 
L 129.037747 273.075377 
L 129.264302 273.706215 
L 129.355184 274.772514 
L 129.400681 274.378955 
L 129.446215 274.330038 
L 129.537396 272.657721 
L 129.583042 273.007811 
L 129.628726 273.620152 
L 129.720205 273.546213 
L 129.857706 273.454295 
L 130.133723 273.661247 
L 130.272241 273.16931 
L 130.31849 273.229189 
L 130.457462 273.009348 
L 130.643291 273.024015 
L 130.783063 273.135203 
L 130.82973 272.908931 
L 130.876436 273.116002 
L 130.923179 273.339515 
L 130.969961 273.323751 
L 131.016781 272.861733 
L 131.063639 272.878788 
L 131.251458 273.241776 
L 131.345598 273.270366 
L 131.866135 273.567151 
L 131.913689 273.938711 
L 131.961283 273.643472 
L 132.056587 273.047912 
L 132.104297 273.257346 
L 132.295531 273.438454 
L 132.921384 273.595104 
L 133.358588 273.803681 
L 133.505041 273.891357 
L 133.602876 274.163724 
L 133.651853 274.123219 
L 133.848166 273.740161 
L 133.995822 273.761797 
L 134.143842 274.075107 
L 134.292227 273.737485 
L 134.490641 273.822046 
L 134.889424 273.959488 
L 134.989528 273.710864 
L 135.039642 273.759765 
L 135.391591 273.874777 
L 135.745564 273.833943 
L 135.948747 274.070323 
L 136.152598 273.892692 
L 136.254773 273.872721 
L 136.408351 274.034876 
L 136.562307 273.943087 
L 137.02645 273.823692 
L 137.337786 273.954788 
L 137.494028 273.7548 
L 137.598403 273.883676 
L 137.650655 273.839555 
L 138.017618 273.699167 
L 138.598541 273.914239 
L 138.704727 273.8096 
L 138.757886 274.114325 
L 138.811087 273.976591 
L 138.917622 274.002032 
L 139.077751 273.592551 
L 139.238274 273.687424 
L 139.29187 273.581638 
L 139.345509 273.684508 
L 139.614366 274.065941 
L 139.77621 273.709738 
L 139.884327 273.798348 
L 139.938451 273.628679 
L 139.992621 273.647635 
L 140.046834 273.72955 
L 140.101092 273.437571 
L 140.155395 273.54084 
L 140.264133 273.851762 
L 140.318569 273.620914 
L 140.37305 273.708272 
L 140.482145 273.878197 
L 140.59142 273.437232 
L 140.646124 273.472197 
L 140.920318 273.518115 
L 140.975292 273.527151 
L 141.140484 273.718717 
L 141.250838 273.712218 
L 141.472088 273.908458 
L 141.638502 274.045299 
L 141.694064 273.909215 
L 141.749672 274.024033 
L 141.805326 274.12153 
L 141.916769 273.957677 
L 142.028396 274.210345 
L 142.084277 274.149471 
L 142.140205 274.310975 
L 142.364374 273.919545 
L 142.476734 274.139824 
L 142.532983 274.016553 
L 142.589279 274.05604 
L 142.758441 274.128352 
L 142.814921 274.267343 
L 142.984639 273.964995 
L 143.041304 273.876212 
L 143.098016 273.916167 
L 143.667696 274.060635 
L 143.782194 274.277038 
L 144.069258 273.528769 
L 144.242062 273.741951 
L 144.415291 272.764187 
L 144.473129 272.782271 
L 144.531014 273.065209 
L 144.588946 272.996481 
L 144.93754 273.277395 
L 145.054119 273.117673 
L 145.11248 273.17633 
L 145.229346 273.423526 
L 145.287851 273.682444 
L 145.346403 273.070568 
L 145.405004 273.167598 
L 145.463653 273.248436 
L 145.581094 272.947299 
L 145.639887 273.4803 
L 145.698728 273.39833 
L 145.816555 272.802346 
L 145.934576 272.896162 
L 145.993658 272.789931 
L 146.408594 273.828076 
L 146.587154 272.437999 
L 146.646771 272.524618 
L 146.766153 273.244989 
L 146.945592 270.21944 
L 147.005503 270.457895 
L 147.065463 270.539176 
L 147.125472 270.486878 
L 147.245639 270.937669 
L 147.305796 270.438861 
L 147.366002 270.55429 
L 147.546917 271.101536 
L 147.667774 271.026237 
L 147.728277 270.14171 
L 147.788829 270.410183 
L 148.031536 271.222163 
L 148.153187 270.015304 
L 148.214088 270.192626 
L 148.275039 269.716274 
L 148.336039 270.043623 
L 148.519341 270.658446 
L 148.580541 270.483393 
L 148.641792 270.629682 
L 148.703093 270.731071 
L 148.764444 270.646925 
L 148.825846 270.626747 
L 148.9488 270.368666 
L 149.504593 271.964323 
L 149.566601 271.744459 
L 149.628659 271.85582 
L 149.690769 271.807756 
L 149.75293 271.53566 
L 149.815141 271.644063 
L 150.126964 272.239355 
L 150.189482 272.190409 
L 150.314672 272.232884 
L 150.502842 272.665647 
L 150.628545 271.265822 
L 150.691474 271.380819 
L 151.006894 271.874218 
L 151.070133 271.819321 
L 151.133424 271.908044 
L 151.323608 272.520032 
L 151.387106 271.749051 
L 151.51426 272.532865 
L 151.641622 272.133936 
L 151.833056 272.474813 
L 151.96094 272.545036 
L 152.217339 273.132929 
L 152.28157 272.972415 
L 152.345853 272.954662 
L 152.410189 272.809243 
L 152.474578 272.847879 
L 152.732662 273.075541 
L 153.251374 273.58232 
L 153.381584 274.453171 
L 153.446769 274.433553 
L 153.904561 272.275159 
L 153.970175 272.181168 
L 154.167338 272.446763 
L 154.497022 272.811669 
L 154.761743 272.702631 
L 154.828059 272.864034 
L 154.89443 272.727362 
L 154.960854 272.79645 
L 155.093867 272.985771 
L 155.160455 272.859184 
L 155.227098 272.923285 
L 155.427353 273.200752 
L 155.494215 273.282727 
L 155.561131 273.025125 
L 155.628102 273.093949 
L 155.695127 271.865131 
L 155.762208 272.296571 
L 155.96378 272.697239 
L 156.031081 272.391678 
L 156.098437 272.513944 
L 156.165849 272.614216 
L 156.233315 272.442258 
L 156.368414 272.929877 
L 156.436046 272.461043 
L 156.503734 272.509904 
L 156.775041 272.636799 
L 156.843007 272.313462 
L 156.911028 272.466792 
L 156.979105 272.316076 
L 157.047238 272.373241 
L 157.525734 272.910544 
L 157.662952 273.131363 
L 157.731645 273.025691 
L 157.938063 273.510842 
L 158.006982 273.454973 
L 158.283222 273.351646 
L 158.421681 273.513985 
L 158.490996 273.267968 
L 158.560368 273.392614 
L 158.629797 273.379842 
L 158.908081 273.668281 
L 158.977794 273.597338 
L 159.117393 273.760777 
L 159.25722 273.574517 
L 159.32722 273.624861 
L 159.397277 273.499206 
L 159.467391 273.610423 
L 159.537563 273.547432 
L 159.607792 273.505128 
L 159.678079 273.750074 
L 159.748424 273.646729 
L 159.818826 273.569921 
L 159.889286 273.12701 
L 159.959803 273.322696 
L 160.171703 273.414838 
L 160.739321 273.536445 
L 161.239047 273.462828 
L 161.454094 273.7563 
L 161.597753 273.115692 
L 161.66967 273.240321 
L 161.741647 273.216271 
L 161.885777 273.396862 
L 162.247136 273.311973 
L 162.319586 273.419531 
L 162.464664 273.155413 
L 162.755533 273.295696 
L 163.120462 274.935812 
L 163.193627 273.785329 
L 163.266852 274.111951 
L 163.413483 273.518993 
L 163.486888 273.607788 
L 163.781112 273.319019 
L 163.928586 273.068557 
L 164.446651 273.332301 
L 164.520903 273.210147 
L 164.669589 273.697616 
L 164.744024 273.593555 
L 164.893076 273.749991 
L 165.042373 272.859143 
L 165.117114 273.066189 
L 165.191915 273.126322 
L 165.416687 273.014146 
L 165.491734 272.982571 
L 165.642013 273.180671 
L 165.792537 273.222019 
L 166.018787 273.354544 
L 166.094328 273.197829 
L 166.245594 273.342201 
L 166.397108 273.160813 
L 166.624846 273.379618 
L 166.700883 272.83643 
L 166.776982 272.991149 
L 166.853144 273.521167 
L 166.929368 273.410356 
L 167.158415 273.139007 
L 167.234889 273.135129 
L 167.464687 273.405788 
L 168.38955 273.657776 
L 168.544579 273.687186 
L 169.167243 273.790419 
L 169.480108 273.760595 
L 169.636926 273.685656 
L 169.794 273.886588 
L 170.030095 274.449108 
L 170.187814 273.0358 
L 170.345792 273.49496 
L 170.424878 273.450855 
L 170.741871 273.641257 
L 171.059903 273.582963 
L 171.219311 273.482762 
L 171.458913 273.624381 
L 171.538911 273.394036 
L 171.618974 273.433143 
L 171.699104 273.372346 
L 171.939886 273.711076 
L 172.100736 273.699073 
L 172.342506 273.48552 
L 172.746779 273.423491 
L 172.827833 273.228239 
L 172.908952 273.347428 
L 172.990139 273.69385 
L 173.071392 273.634838 
L 173.234097 274.064856 
L 173.31555 273.973102 
L 173.397069 274.058274 
L 173.478656 273.958678 
L 173.642029 273.390337 
L 173.723816 273.36041 
L 173.80567 273.472781 
L 173.887591 273.17515 
L 173.969579 273.286911 
L 174.133758 273.848818 
L 174.38053 272.706494 
L 174.462922 272.696152 
L 174.710504 273.175621 
L 174.793166 273.071066 
L 175.041561 271.982063 
L 175.124494 272.042398 
L 175.207496 272.323564 
L 175.45691 271.411166 
L 175.540184 271.491506 
L 175.790417 271.799101 
L 175.873964 271.523384 
L 175.95758 271.579858 
L 176.208839 272.022645 
L 176.29273 271.925728 
L 176.544813 272.254615 
L 176.713214 272.924844 
L 176.966332 271.980678 
L 177.220073 272.428323 
L 177.474438 271.588095 
L 177.899772 272.054407 
L 178.58394 272.685573 
L 178.669776 272.689077 
L 178.755683 273.024344 
L 179.013827 272.176898 
L 179.100015 272.015008 
L 179.792074 272.900823 
L 179.8789 272.876931 
L 179.965798 272.709854 
L 180.052767 272.761803 
L 180.226919 272.883865 
L 180.314102 272.697146 
L 180.576079 273.060193 
L 180.663548 272.819335 
L 180.751089 272.888042 
L 181.10197 273.46666 
L 181.18987 274.078082 
L 181.277842 274.051152 
L 181.365886 274.005147 
L 181.630451 273.184021 
L 181.80719 273.210963 
L 182.161536 273.55147 
L 182.250304 273.362478 
L 182.428059 272.873691 
L 182.517046 272.89299 
L 182.695238 273.256819 
L 182.963074 272.711492 
L 183.052499 272.100391 
L 183.141997 272.196992 
L 183.321214 271.978978 
L 183.410932 272.121966 
L 183.500724 272.724709 
L 183.770542 269.523878 
L 184.131332 270.455272 
L 184.221714 271.302715 
L 184.31217 270.55321 
L 184.493305 271.116845 
L 184.674738 271.457928 
L 184.765565 271.366812 
L 185.038495 271.784157 
L 185.129621 271.952927 
L 185.403446 270.885331 
L 185.769595 271.887546 
L 185.861319 271.539223 
L 185.953119 270.537128 
L 186.228971 271.033777 
L 186.321072 270.685709 
L 186.597828 271.148669 
L 186.875266 271.463383 
L 187.153386 271.767084 
L 187.33918 272.289626 
L 187.432191 272.185706 
L 187.525278 273.084007 
L 187.618441 272.702105 
L 187.804997 271.407169 
L 187.89839 271.529896 
L 187.991859 270.858061 
L 188.085405 271.025366 
L 188.179027 270.917351 
L 188.648291 271.788578 
L 188.836536 271.035914 
L 189.025089 271.05623 
L 189.119481 271.085121 
L 189.213951 271.278945 
L 189.308498 270.621026 
L 189.403123 270.734535 
L 189.592605 271.449574 
L 189.782397 268.072765 
L 189.972501 268.880056 
L 190.06767 268.971921 
L 190.449125 270.023244 
L 190.640322 269.437879 
L 190.831833 269.630259 
L 190.927706 268.487394 
L 191.023657 268.644248 
L 191.215796 269.045647 
L 191.311984 269.92707 
L 191.60102 267.680846 
L 191.890767 268.815749 
L 191.987507 268.337518 
L 192.472401 269.401008 
L 192.666915 268.490216 
L 192.959284 269.525286 
L 193.056901 269.469018 
L 193.35023 270.49874 
L 193.448166 270.127329 
L 193.64428 270.672666 
L 193.840716 271.027697 
L 193.939054 271.42805 
L 194.234554 269.808584 
L 194.431957 270.175922 
L 194.53078 269.889984 
L 194.728669 265.53751 
L 195.224812 267.910139 
L 195.423839 265.789956 
L 195.523474 266.128165 
L 195.722991 266.101589 
L 195.822872 266.117663 
L 196.022879 266.658095 
L 196.223215 266.606248 
L 196.524334 267.491173 
L 196.624871 267.445275 
L 196.826194 267.070161 
L 197.027846 268.118378 
L 197.128796 268.090626 
L 197.330945 265.22796 
L 197.432143 265.170359 
L 197.634789 266.183445 
L 197.837767 265.137099 
L 197.939381 265.012106 
L 198.244722 266.717389 
L 198.34667 266.466091 
L 198.4487 267.149985 
L 198.550815 266.191287 
L 198.857661 267.018376 
L 198.96011 267.291405 
L 199.370749 269.139097 
L 199.473619 268.556364 
L 199.576573 268.620757 
L 199.679611 268.886574 
L 199.782735 268.765841 
L 199.885942 269.057638 
L 199.989234 268.720775 
L 200.196073 269.276859 
L 200.506966 270.047625 
L 201.13105 270.721352 
L 201.33976 270.710015 
L 201.444244 270.646062 
L 201.653467 270.983971 
L 201.863034 270.052241 
L 202.072945 270.389377 
L 202.283199 269.865313 
L 202.388456 269.972636 
L 202.704743 270.640461 
L 203.021809 271.118867 
L 203.127671 270.973277 
L 203.551986 271.54225 
L 203.764666 271.507866 
L 203.977694 271.507463 
L 204.297892 271.814361 
L 204.511794 271.518221 
L 204.618877 271.477809 
L 204.833306 271.788262 
L 204.940652 271.230918 
L 205.263218 271.653049 
L 206.235688 272.607736 
L 206.344183 272.596192 
L 206.561441 272.84291 
L 206.779055 272.503024 
L 206.887995 272.13311 
L 207.106144 272.751959 
L 207.215353 272.579966 
L 207.543516 272.814584 
L 207.76274 272.867052 
L 208.753704 273.291564 
L 208.864262 273.166193 
L 209.196482 273.34885 
L 209.52952 273.318456 
L 209.640714 273.562822 
L 209.752 273.081535 
L 209.974844 273.333371 
L 210.42163 273.404966 
L 210.645573 273.389657 
L 210.757682 273.492928 
L 211.09456 273.110761 
L 211.207037 272.805626 
L 211.319606 272.867647 
L 211.432268 272.421253 
L 211.657867 272.714911 
L 211.770806 272.481794 
L 211.99696 272.826537 
L 212.336888 272.942346 
L 212.450383 273.221312 
L 212.677651 272.690515 
L 212.905293 272.594515 
L 213.019254 272.494804 
L 213.247455 271.427397 
L 213.361696 271.520211 
L 213.476031 271.366394 
L 214.624543 272.386839 
L 214.970935 272.090326 
L 215.318179 272.473543 
L 215.434117 272.261543 
L 215.666278 272.752785 
L 215.782501 273.081957 
L 215.898819 272.940957 
L 216.015233 272.60581 
L 216.248346 272.727216 
L 216.365046 272.870694 
L 216.598733 272.128382 
L 216.715721 272.044654 
L 217.067258 272.23264 
L 217.302096 271.963026 
L 217.537319 272.187793 
L 217.655076 272.161186 
L 217.890878 272.536793 
L 218.008924 273.165345 
L 218.127067 273.174653 
L 218.363643 271.931243 
L 218.482076 271.967452 
L 218.600606 271.437504 
L 218.719234 271.570997 
L 218.956781 270.611258 
L 219.0757 270.389406 
L 219.194717 270.556102 
L 219.313832 270.504881 
L 219.671761 270.888081 
L 219.791266 271.173083 
L 219.910869 271.018313 
L 220.15037 271.149933 
L 220.390263 271.665323 
L 220.510357 271.562125 
L 220.63055 271.71154 
L 220.750841 271.065763 
L 221.112305 271.503814 
L 221.232991 270.898004 
L 221.595642 271.484037 
L 221.716724 271.445217 
L 221.837905 271.60742 
L 222.080565 271.039248 
L 222.445301 271.375339 
L 222.567079 271.257361 
L 222.810935 270.935789 
L 223.177468 271.364734 
L 223.299846 270.802364 
L 223.422324 270.805808 
L 223.544903 270.261701 
L 223.790362 270.816608 
L 223.913242 270.750042 
L 224.282487 271.228802 
L 224.529155 271.520349 
L 224.899916 272.409043 
L 225.023705 271.46945 
L 225.147596 271.521168 
L 225.271588 271.398856 
L 225.519878 271.752095 
L 225.644175 271.586994 
L 225.893076 272.407721 
L 226.017679 272.069614 
L 226.267192 270.953953 
L 226.392102 270.891497 
L 226.642229 271.738214 
L 226.767446 271.400885 
L 226.892766 269.200013 
L 227.018188 269.724597 
L 227.143713 269.297231 
L 227.269341 269.441111 
L 227.395072 269.384574 
L 227.520906 268.238139 
L 228.025275 269.404906 
L 228.278079 269.830101 
L 228.404637 269.765619 
L 228.658063 270.498007 
L 228.911905 270.963961 
L 229.038982 270.932394 
L 229.548332 271.509099 
L 229.675931 271.102366 
L 229.803634 271.219679 
L 229.931441 271.642362 
L 230.059354 271.548139 
L 230.315493 271.682083 
L 230.572053 270.2656 
L 230.829033 270.695518 
L 230.957681 269.339139 
L 231.086434 269.423108 
L 231.473327 270.821469 
L 231.731785 271.145382 
L 231.861173 271.183963 
L 232.120266 271.589827 
L 232.249972 272.020034 
L 232.509703 269.638842 
L 232.76986 270.12623 
L 232.900099 270.013996 
L 233.291454 267.576157 
L 233.42212 267.352808 
L 233.552893 267.365203 
L 233.81476 266.977532 
L 233.945855 267.014284 
L 234.339783 267.632558 
L 234.60294 267.412632 
L 234.998486 268.335595 
L 235.13055 268.078732 
L 235.395004 268.340789 
L 235.792498 269.525362 
L 235.925213 270.410956 
L 236.19097 268.540782 
L 236.324011 269.096726 
L 236.457162 268.440355 
L 236.723791 269.051466 
L 236.990857 268.197931 
L 237.124554 267.332723 
L 237.794685 269.285403 
L 237.929041 269.036086 
L 238.063507 269.208429 
L 238.198083 268.822921 
L 238.87262 269.923703 
L 239.143209 270.637799 
L 239.278669 270.859603 
L 239.414241 270.632022 
L 239.549924 270.661233 
L 239.685718 270.959534 
L 239.821624 269.958336 
L 239.957641 269.888414 
L 240.093769 269.52291 
L 240.230009 269.75574 
L 240.502823 269.435801 
L 240.912884 270.080372 
L 241.049795 270.026124 
L 241.461201 270.682609 
L 242.287053 271.694637 
L 242.42509 271.612051 
L 242.701504 272.281965 
L 242.978371 271.479737 
L 243.116974 271.711005 
L 243.255691 271.530827 
L 243.394522 271.9269 
L 243.672525 270.023936 
L 243.811697 269.320841 
L 243.950984 269.540833 
L 244.229899 269.084391 
L 244.369528 269.634657 
L 244.509271 269.442962 
L 244.649129 269.456072 
L 244.929189 269.972471 
L 245.069391 269.974132 
L 245.209708 270.257095 
L 245.35014 270.026357 
L 245.91302 270.951005 
L 246.054028 271.782572 
L 246.195152 271.213528 
L 246.336391 269.862534 
L 246.477747 269.907033 
L 246.619218 270.116075 
L 246.760804 270.611022 
L 247.044327 269.944827 
L 247.186262 269.814432 
L 247.328313 271.190595 
L 247.470481 270.337324 
L 247.897685 271.017416 
L 248.040319 270.805592 
L 248.183071 270.272478 
L 248.468925 270.887735 
L 248.755247 271.050192 
L 248.898585 271.250598 
L 249.042039 271.699934 
L 249.185612 271.346691 
L 249.329302 270.401184 
L 249.473109 270.249414 
L 249.617035 270.515629 
L 249.90524 268.6468 
L 250.049519 268.34286 
L 250.193917 268.670839 
L 250.627821 268.613667 
L 250.917683 267.927527 
L 251.208021 265.679414 
L 251.353368 266.102025 
L 251.498834 267.16725 
L 251.935948 262.785565 
L 252.081892 261.650231 
L 252.227955 261.768593 
L 252.374138 262.309423 
L 252.813406 260.828174 
L 253.253755 263.033071 
L 253.547922 264.008675 
L 253.695187 263.639082 
L 253.842572 263.781674 
L 254.285453 264.948099 
L 254.433322 264.655403 
L 254.581312 263.02566 
L 255.323083 265.734251 
L 255.471802 264.05076 
L 255.620644 263.632558 
L 255.918692 264.696656 
L 256.067899 265.011837 
L 256.217228 264.714522 
L 256.665952 266.292678 
L 257.115779 267.698763 
L 257.265967 267.576136 
L 257.71727 268.648617 
L 257.867951 268.496855 
L 258.018756 267.897555 
L 258.169684 268.233924 
L 258.320736 268.188269 
L 258.471911 268.880271 
L 258.774634 267.120478 
L 258.926182 266.89084 
L 259.077853 264.546254 
L 259.229649 264.565992 
L 259.38157 264.375389 
L 259.533614 264.869917 
L 259.685784 264.442515 
L 259.838078 264.891701 
L 259.990497 264.913222 
L 260.143041 265.217852 
L 260.295709 265.172154 
L 260.601423 265.596056 
L 260.754467 265.200595 
L 261.521572 266.792547 
L 261.675371 265.734611 
L 261.829295 265.832371 
L 262.291826 267.124076 
L 262.446255 267.105644 
L 263.06524 268.092067 
L 263.220304 268.611598 
L 263.375494 268.71793 
L 263.686256 269.549844 
L 263.841829 269.024754 
L 264.153356 269.05811 
L 264.309311 269.315663 
L 264.465394 268.668614 
L 264.621604 268.577126 
L 265.091005 269.559607 
L 265.247728 269.663524 
L 265.56156 268.200489 
L 265.718669 268.757657 
L 266.033273 268.678634 
L 266.190769 269.207566 
L 266.348393 268.209207 
L 266.66403 267.82536 
L 266.822042 266.72998 
L 266.980184 266.520386 
L 267.138455 266.936682 
L 267.296856 267.966125 
L 267.455387 265.486222 
L 267.614048 265.072905 
L 267.772839 263.350987 
L 267.93176 263.142458 
L 268.249993 263.860286 
L 268.409304 263.53923 
L 268.568747 263.493487 
L 268.72832 263.598727 
L 269.047859 264.748687 
L 269.367921 265.49541 
L 269.848999 265.889855 
L 270.009621 265.67508 
L 270.331261 266.447669 
L 270.976122 267.875458 
L 271.137668 267.507583 
L 271.299346 267.519747 
L 271.785176 268.766611 
L 272.109727 266.521548 
L 272.59755 267.659503 
L 272.760425 267.654341 
L 273.413258 268.471117 
L 273.904289 269.555427 
L 274.068234 268.916752 
L 274.396528 269.27985 
L 274.560876 268.948369 
L 274.72536 268.90667 
L 274.889978 268.54155 
L 275.384642 269.276739 
L 275.715094 269.797546 
L 275.880523 269.606658 
L 276.377624 270.274491 
L 276.543596 270.162819 
L 276.875948 270.491583 
L 277.042328 271.108878 
L 277.208845 270.032046 
L 277.542287 270.23446 
L 277.709214 270.083675 
L 277.876277 270.355297 
L 278.043477 270.381071 
L 278.378288 271.059454 
L 278.545899 270.926372 
L 279.049558 271.472181 
L 279.217719 271.907801 
L 279.386019 272.708212 
L 279.554456 271.41075 
L 279.723031 271.329837 
L 280.229586 271.589088 
L 280.398714 271.405368 
L 280.567981 271.585822 
L 280.906931 271.444736 
L 281.416399 271.901592 
L 281.75674 272.123317 
L 281.92712 272.052253 
L 282.268298 272.253528 
L 282.610036 272.239334 
L 282.781115 272.407809 
L 282.952334 272.181903 
L 283.123694 272.28361 
L 283.295194 272.854313 
L 283.466834 271.773456 
L 283.638615 272.09109 
L 283.810537 271.818006 
L 283.9826 271.20085 
L 284.154804 270.142023 
L 284.327149 270.401478 
L 284.499635 270.413674 
L 284.672262 269.914378 
L 285.017941 266.977537 
L 285.364187 266.984466 
L 285.537523 267.295059 
L 285.711001 267.913341 
L 285.884621 268.090274 
L 286.058384 267.543339 
L 286.232288 267.615217 
L 286.406335 267.09789 
L 286.754858 267.749119 
L 286.929333 267.607008 
L 287.278713 268.061926 
L 287.453618 268.670963 
L 287.803857 268.774761 
L 287.979192 268.90454 
L 288.154671 268.84145 
L 288.330293 269.033447 
L 288.50606 269.410389 
L 288.68197 268.919684 
L 289.210567 269.99934 
L 289.563687 270.83151 
L 289.740464 270.710358 
L 289.917386 270.42469 
L 290.094453 270.585318 
L 290.271665 270.56796 
L 290.626524 270.895285 
L 290.804172 270.684723 
L 291.516221 271.327256 
L 291.873121 271.352533 
L 292.051791 271.373575 
L 292.230607 271.281635 
L 292.409569 271.469748 
L 292.588678 270.709494 
L 292.947337 270.948676 
L 293.306583 271.312091 
L 293.846558 272.485388 
L 294.207279 270.636129 
L 294.387861 270.86675 
L 294.568591 271.393136 
L 294.930496 269.819511 
L 295.111671 269.316252 
L 295.292994 269.244501 
L 295.656086 269.705724 
L 295.837856 268.328728 
L 296.019774 268.420111 
L 296.201841 267.498677 
L 296.566424 268.006022 
L 296.748939 268.610017 
L 296.931604 268.01364 
L 297.297383 266.426997 
L 297.663762 267.028024 
L 297.847176 265.563891 
L 298.030741 265.275294 
L 298.214456 263.098153 
L 298.398322 262.79808 
L 298.582339 263.392267 
L 298.766506 262.890126 
L 298.950824 262.909961 
L 299.319914 260.403176 
L 299.874683 261.999842 
L 300.245287 261.571622 
L 300.430817 260.429816 
L 300.616499 261.158002 
L 300.988319 261.545734 
L 301.360749 262.616186 
L 301.73379 264.088098 
L 302.107442 265.021227 
L 302.294498 264.999574 
L 302.481707 265.922658 
L 302.66907 265.457468 
L 302.856586 265.561941 
L 303.232079 266.454494 
L 303.420057 265.918785 
L 303.608188 264.998864 
L 303.984913 265.354553 
L 304.173508 265.139994 
L 304.740218 266.033869 
L 304.929432 266.101066 
L 305.308323 266.984197 
L 305.687836 266.930317 
L 305.877826 267.321109 
L 306.067971 267.42278 
L 307.021038 268.716578 
L 307.21212 268.624557 
L 307.403359 269.197694 
L 307.594754 268.952777 
L 307.786307 268.917152 
L 308.361906 268.40465 
L 308.746425 268.607524 
L 308.938921 268.514265 
L 309.90377 270.296316 
L 310.097215 269.692724 
L 310.290817 268.459759 
L 310.678499 269.271912 
L 310.872579 269.263913 
L 311.066817 269.418951 
L 311.261214 268.272741 
L 311.455771 268.155575 
L 311.650487 268.389639 
L 311.845363 267.981142 
L 312.040398 268.578676 
L 312.235593 268.630285 
L 312.626464 269.180796 
L 313.017975 269.638624 
L 313.213971 269.491967 
L 313.802924 270.355269 
L 313.999564 270.617545 
L 314.393326 270.775993 
L 314.787735 271.323477 
L 314.985181 271.290905 
L 315.182789 271.580926 
L 315.578492 271.859938 
L 315.974843 272.225404 
L 316.173262 272.753275 
L 316.371844 271.748609 
L 316.769496 271.923768 
L 316.968566 272.102163 
L 317.1678 271.890777 
L 317.367197 272.621401 
L 317.566757 271.516939 
L 317.766481 271.290455 
L 317.966368 271.371819 
L 318.567013 270.760163 
L 318.767557 270.966138 
L 318.968264 270.915709 
L 319.169136 269.953059 
L 319.571375 270.709525 
L 320.175969 271.270028 
L 320.377831 271.096648 
L 320.782051 271.229744 
L 321.186933 271.50651 
L 321.59248 271.815249 
L 321.795502 271.572259 
L 322.202046 272.103692 
L 322.405568 272.013568 
L 322.609257 272.116954 
L 323.017136 272.137136 
L 323.221326 272.344317 
L 323.425683 272.268661 
L 323.8349 271.024192 
L 324.03976 270.937448 
L 324.244788 271.054631 
L 324.449984 271.468231 
L 324.655348 271.28406 
L 324.86088 270.186624 
L 325.066581 269.870239 
L 325.27245 270.070133 
L 325.891071 268.529235 
L 326.097615 269.241125 
L 327.132882 270.070312 
L 327.548177 270.547779 
L 327.756079 270.549709 
L 328.172396 271.107576 
L 328.380811 271.172014 
L 328.589396 271.109051 
L 329.007079 271.376617 
L 329.216177 271.108662 
L 329.8445 271.075323 
L 330.054285 270.901778 
L 330.264241 271.352568 
L 330.47437 271.161997 
L 330.68467 271.306847 
L 330.895143 271.28317 
L 331.105789 271.498804 
L 331.316607 271.286373 
L 331.527598 271.269678 
L 331.738761 271.517105 
L 331.950098 271.359579 
L 332.161608 270.955344 
L 332.373291 270.231755 
L 332.797178 271.231389 
L 333.009382 271.149537 
L 333.434312 271.505397 
L 333.647038 270.865416 
L 334.286263 271.44489 
L 334.499687 271.623607 
L 334.713286 271.417325 
L 334.92706 271.375081 
L 335.141009 271.581249 
L 335.355134 271.595238 
L 335.569434 270.388224 
L 335.78391 270.02087 
L 336.213389 270.498484 
L 336.428392 270.210582 
L 336.643571 269.719365 
L 336.858927 269.513511 
L 337.07446 269.744555 
L 337.506054 269.682519 
L 337.722117 269.291486 
L 338.805089 270.741891 
L 339.022216 270.124252 
L 339.239521 270.12366 
L 339.674665 270.552341 
L 340.110523 270.999 
L 340.547095 270.05762 
L 340.76565 270.313257 
L 340.984383 270.162654 
L 341.422389 268.736138 
L 341.861112 269.44152 
L 342.080743 269.422111 
L 342.300554 269.562417 
L 342.740717 270.251527 
L 342.961069 270.52079 
L 343.181602 270.608567 
L 343.402315 270.857922 
L 343.62321 270.897002 
L 343.844285 271.058984 
L 344.286979 270.950646 
L 344.508598 271.152953 
L 344.730399 271.13046 
L 344.952381 270.667671 
L 345.174546 271.335526 
L 345.396892 271.532868 
L 345.619421 271.322967 
L 346.065025 271.677831 
L 346.51136 271.12609 
L 347.182235 271.333001 
L 347.406227 270.434308 
L 347.630402 270.40244 
L 347.854761 270.587877 
L 348.30403 269.943964 
L 348.528941 269.060714 
L 348.754036 269.198471 
L 348.979316 268.346081 
L 349.20478 268.261087 
L 349.430429 268.39241 
L 349.882282 268.335536 
L 350.334875 269.782096 
L 350.788211 269.112849 
L 351.24229 269.343108 
L 351.469608 269.009821 
L 351.697113 267.727158 
L 351.924804 267.885253 
L 352.152682 268.249548 
L 352.380747 268.142872 
L 352.608998 267.209275 
L 352.837436 267.029593 
L 353.294875 268.164793 
L 353.523876 268.300723 
L 353.753064 268.808146 
L 354.441756 269.410332 
L 354.901825 269.840637 
L 355.593343 270.371609 
L 355.824227 270.331047 
L 356.286562 270.579742 
L 356.518014 271.046884 
L 356.749656 271.253209 
L 356.981487 271.074751 
L 357.213509 271.250536 
L 357.44572 270.856497 
L 357.910714 271.206896 
L 358.143497 269.082239 
L 358.376471 268.956813 
L 358.842991 269.001635 
L 359.076538 268.936251 
L 359.310276 268.029643 
L 359.544206 266.336625 
L 359.778327 266.406693 
L 360.01264 266.835036 
L 360.481843 263.445547 
L 360.716733 263.347419 
L 361.18709 264.412914 
L 361.422557 264.135649 
L 361.658218 264.18526 
L 361.894072 263.175679 
L 362.130119 263.100668 
L 362.839421 264.374077 
L 363.076242 263.721253 
L 364.025471 265.635412 
L 364.501253 266.328023 
L 364.739436 266.751708 
L 366.172641 267.727545 
L 366.412194 268.089258 
L 366.651943 267.739891 
L 366.891889 268.125025 
L 367.132031 267.890379 
L 367.37237 268.035093 
L 367.612906 267.851266 
L 367.853639 268.451839 
L 368.09457 268.064176 
L 368.335698 268.363256 
L 368.577023 269.036014 
L 368.818546 270.444312 
L 369.302187 268.05323 
L 369.544304 268.172886 
L 369.78662 265.712615 
L 370.029134 265.90024 
L 370.271847 266.370489 
L 370.514759 264.990427 
L 371.00118 260.921672 
L 371.24469 261.556508 
L 371.488399 261.42463 
L 371.732308 260.549327 
L 371.976417 260.428534 
L 372.954854 262.887764 
L 373.690788 263.960273 
L 374.428533 264.898715 
L 374.674851 265.421461 
L 374.921371 265.545078 
L 375.662144 266.752154 
L 375.909473 266.495721 
L 376.157004 266.405448 
L 376.404739 266.47333 
L 376.652676 266.816295 
L 376.900817 266.468183 
L 377.149161 267.15066 
L 377.397708 268.173469 
L 377.646459 268.319561 
L 377.895414 267.74493 
L 378.144573 267.827792 
L 378.393937 268.045434 
L 378.643504 267.447198 
L 378.893276 268.068454 
L 379.143253 267.5014 
L 379.643821 268.418297 
L 380.145209 269.250122 
L 380.396212 268.523928 
L 380.64742 269.085878 
L 380.898834 269.065033 
L 381.150454 269.322791 
L 381.402281 269.313383 
L 381.654313 269.418346 
L 381.906552 268.532218 
L 382.158998 269.113783 
L 382.411651 269.027736 
L 382.664511 269.356937 
L 382.917578 268.137803 
L 383.424334 269.295168 
L 383.678023 268.934487 
L 383.931921 269.173395 
L 384.186026 269.194221 
L 384.44034 268.769433 
L 384.694862 268.778532 
L 384.949593 269.288168 
L 385.715038 266.539007 
L 385.970605 266.727637 
L 386.482366 267.463225 
L 386.738562 266.937129 
L 386.994967 266.903249 
L 387.508408 267.581909 
L 388.022691 266.628917 
L 388.280149 266.992405 
L 388.795697 266.862397 
L 389.570605 268.171905 
L 389.829331 267.861328 
L 390.088269 266.879052 
L 390.347419 266.524199 
L 390.606782 266.899156 
L 390.866357 266.492949 
L 391.126145 266.61716 
L 391.386145 264.66411 
L 392.167426 265.709237 
L 392.42828 265.495159 
L 392.95063 263.70239 
L 393.473835 264.693021 
L 393.73576 264.713952 
L 394.260253 262.133988 
L 394.522822 261.926726 
L 394.785606 262.605692 
L 395.048605 261.72478 
L 395.31182 260.22268 
L 395.575251 259.888278 
L 396.102759 261.282643 
L 396.366838 261.653401 
L 396.631133 260.442046 
L 396.895645 260.53921 
L 397.160373 261.644011 
L 397.425319 261.726321 
L 397.690481 261.116295 
L 397.955861 261.295381 
L 398.221458 258.573958 
L 398.487273 258.05031 
L 398.487273 258.05031 
" clip-path="url(#p8b6bcd3c86)" style="fill: none; stroke: #1f77b4; stroke-width: 1.5; stroke-linecap: square"/>
   </g>
   <g id="patch_3">
    <path d="M 57.6 307.584 
L 57.6 41.472 
" style="fill: none; stroke: #000000; stroke-width: 0.8; stroke-linejoin: miter; stroke-linecap: square"/>
   </g>
   <g id="patch_4">
    <path d="M 414.72 307.584 
L 414.72 41.472 
" style="fill: none; stroke: #000000; stroke-width: 0.8; stroke-linejoin: miter; stroke-linecap: square"/>
   </g>
   <g id="patch_5">
    <path d="M 57.6 307.584 
L 414.72 307.584 
" style="fill: none; stroke: #000000; stroke-width: 0.8; stroke-linejoin: miter; stroke-linecap: square"/>
   </g>
   <g id="patch_6">
    <path d="M 57.6 41.472 
L 414.72 41.472 
" style="fill: none; stroke: #000000; stroke-width: 0.8; stroke-linejoin: miter; stroke-linecap: square"/>
   </g>
   <g id="PathCollection_1">
    <defs>
     <path id="m5955aaf405" d="M 0 4.330127 
C 1.148363 4.330127 2.249847 3.873878 3.061862 3.061862 
C 3.873878 2.249847 4.330127 1.148363 4.330127 0 
C 4.330127 -1.148363 3.873878 -2.249847 3.061862 -3.061862 
C 2.249847 -3.873878 1.148363 -4.330127 0 -4.330127 
C -1.148363 -4.330127 -2.249847 -3.873878 -3.061862 -3.061862 
C -3.873878 -2.249847 -4.330127 -1.148363 -4.330127 0 
C -4.330127 1.148363 -3.873878 2.249847 -3.061862 3.061862 
C -2.249847 3.873878 -1.148363 4.330127 0 4.330127 
z
" style="stroke: #ff0000"/>
    </defs>
    <g clip-path="url(#p8b6bcd3c86)">
     <use xlink:href="#m5955aaf405" x="73.832793" y="90.336283" style="fill: #ff0000; stroke: #ff0000"/>
    </g>
   </g>
   <g id="legend_1">
    <g id="patch_7">
     <path d="M 287.349688 64.150125 
L 407.72 64.150125 
Q 409.72 64.150125 409.72 62.150125 
L 409.72 48.472 
Q 409.72 46.472 407.72 46.472 
L 287.349688 46.472 
Q 285.349688 46.472 285.349688 48.472 
L 285.349688 62.150125 
Q 285.349688 64.150125 287.349688 64.150125 
z
" style="fill: #ffffff; opacity: 0.8; stroke: #cccccc; stroke-linejoin: miter"/>
    </g>
    <g id="PathCollection_2">
     <g>
      <use xlink:href="#m5955aaf405" x="299.349688" y="55.445438" style="fill: #ff0000; stroke: #ff0000"/>
     </g>
    </g>
    <g id="text_15">
     <!-- steepest gradient -->
     <g transform="translate(317.349688 58.070438) scale(0.1 -0.1)">
      <defs>
       <path id="DejaVuSans-70" d="M 1159 525 
L 1159 -1331 
L 581 -1331 
L 581 3500 
L 1159 3500 
L 1159 2969 
Q 1341 3281 1617 3432 
Q 1894 3584 2278 3584 
Q 2916 3584 3314 3078 
Q 3713 2572 3713 1747 
Q 3713 922 3314 415 
Q 2916 -91 2278 -91 
Q 1894 -91 1617 61 
Q 1341 213 1159 525 
z
M 3116 1747 
Q 3116 2381 2855 2742 
Q 2594 3103 2138 3103 
Q 1681 3103 1420 2742 
Q 1159 2381 1159 1747 
Q 1159 1113 1420 752 
Q 1681 391 2138 391 
Q 2594 391 2855 752 
Q 3116 1113 3116 1747 
z
" transform="scale(0.015625)"/>
       <path id="DejaVuSans-64" d="M 2906 2969 
L 2906 4863 
L 3481 4863 
L 3481 0 
L 2906 0 
L 2906 525 
Q 2725 213 2448 61 
Q 2172 -91 1784 -91 
Q 1150 -91 751 415 
Q 353 922 353 1747 
Q 353 2572 751 3078 
Q 1150 3584 1784 3584 
Q 2172 3584 2448 3432 
Q 2725 3281 2906 2969 
z
M 947 1747 
Q 947 1113 1208 752 
Q 1469 391 1925 391 
Q 2381 391 2643 752 
Q 2906 1113 2906 1747 
Q 2906 2381 2643 2742 
Q 2381 3103 1925 3103 
Q 1469 3103 1208 2742 
Q 947 2381 947 1747 
z
" transform="scale(0.015625)"/>
      </defs>
      <use xlink:href="#DejaVuSans-73"/>
      <use xlink:href="#DejaVuSans-74" x="52.099609"/>
      <use xlink:href="#DejaVuSans-65" x="91.308594"/>
      <use xlink:href="#DejaVuSans-65" x="152.832031"/>
      <use xlink:href="#DejaVuSans-70" x="214.355469"/>
      <use xlink:href="#DejaVuSans-65" x="277.832031"/>
      <use xlink:href="#DejaVuSans-73" x="339.355469"/>
      <use xlink:href="#DejaVuSans-74" x="391.455078"/>
      <use xlink:href="#DejaVuSans-20" x="430.664062"/>
      <use xlink:href="#DejaVuSans-67" x="462.451172"/>
      <use xlink:href="#DejaVuSans-72" x="525.927734"/>
      <use xlink:href="#DejaVuSans-61" x="567.041016"/>
      <use xlink:href="#DejaVuSans-64" x="628.320312"/>
      <use xlink:href="#DejaVuSans-69" x="691.796875"/>
      <use xlink:href="#DejaVuSans-65" x="719.580078"/>
      <use xlink:href="#DejaVuSans-6e" x="781.103516"/>
      <use xlink:href="#DejaVuSans-74" x="844.482422"/>
     </g>
    </g>
   </g>
  </g>
 </g>
 <defs>
  <clipPath id="p8b6bcd3c86">
   <rect x="57.6" y="41.472" width="357.12" height="266.112"/>
  </clipPath>
 </defs>
</svg>
