<?xml version="1.0" encoding="utf-8" standalone="no"?>
<!DOCTYPE svg PUBLIC "-//W3C//DTD SVG 1.1//EN"
  "http://www.w3.org/Graphics/SVG/1.1/DTD/svg11.dtd">
<svg xmlns:xlink="http://www.w3.org/1999/xlink" width="460.8pt" height="345.6pt" viewBox="0 0 460.8 345.6" xmlns="http://www.w3.org/2000/svg" version="1.1">
 <metadata>
  <rdf:RDF xmlns:dc="http://purl.org/dc/elements/1.1/" xmlns:cc="http://creativecommons.org/ns#" xmlns:rdf="http://www.w3.org/1999/02/22-rdf-syntax-ns#">
   <cc:Work>
    <dc:type rdf:resource="http://purl.org/dc/dcmitype/StillImage"/>
    <dc:date>2024-02-15T10:58:27.893855</dc:date>
    <dc:format>image/svg+xml</dc:format>
    <dc:creator>
     <cc:Agent>
      <dc:title>Matplotlib v3.7.4, https://matplotlib.org/</dc:title>
     </cc:Agent>
    </dc:creator>
   </cc:Work>
  </rdf:RDF>
 </metadata>
 <defs>
  <style type="text/css">*{stroke-linejoin: round; stroke-linecap: butt}</style>
 </defs>
 <g id="figure_1">
  <g id="patch_1">
   <path d="M 0 345.6 
L 460.8 345.6 
L 460.8 0 
L 0 0 
z
" style="fill: #ffffff"/>
  </g>
  <g id="axes_1">
   <g id="patch_2">
    <path d="M 57.6 307.584 
L 414.72 307.584 
L 414.72 41.472 
L 57.6 41.472 
z
" style="fill: #ffffff"/>
   </g>
   <g id="matplotlib.axis_1">
    <g id="xtick_1">
     <g id="line2d_1">
      <defs>
       <path id="m02ca3cb9f4" d="M 0 0 
L 0 3.5 
" style="stroke: #000000; stroke-width: 0.8"/>
      </defs>
      <g>
       <use xlink:href="#m02ca3cb9f4" x="73.832002" y="307.584" style="stroke: #000000; stroke-width: 0.8"/>
      </g>
     </g>
     <g id="text_1">
      <!-- 0.000 -->
      <g transform="translate(59.51794 322.182437) scale(0.1 -0.1)">
       <defs>
        <path id="DejaVuSans-30" d="M 2034 4250 
Q 1547 4250 1301 3770 
Q 1056 3291 1056 2328 
Q 1056 1369 1301 889 
Q 1547 409 2034 409 
Q 2525 409 2770 889 
Q 3016 1369 3016 2328 
Q 3016 3291 2770 3770 
Q 2525 4250 2034 4250 
z
M 2034 4750 
Q 2819 4750 3233 4129 
Q 3647 3509 3647 2328 
Q 3647 1150 3233 529 
Q 2819 -91 2034 -91 
Q 1250 -91 836 529 
Q 422 1150 422 2328 
Q 422 3509 836 4129 
Q 1250 4750 2034 4750 
z
" transform="scale(0.015625)"/>
        <path id="DejaVuSans-2e" d="M 684 794 
L 1344 794 
L 1344 0 
L 684 0 
L 684 794 
z
" transform="scale(0.015625)"/>
       </defs>
       <use xlink:href="#DejaVuSans-30"/>
       <use xlink:href="#DejaVuSans-2e" x="63.623047"/>
       <use xlink:href="#DejaVuSans-30" x="95.410156"/>
       <use xlink:href="#DejaVuSans-30" x="159.033203"/>
       <use xlink:href="#DejaVuSans-30" x="222.65625"/>
      </g>
     </g>
    </g>
    <g id="xtick_2">
     <g id="line2d_2">
      <g>
       <use xlink:href="#m02ca3cb9f4" x="145.897119" y="307.584" style="stroke: #000000; stroke-width: 0.8"/>
      </g>
     </g>
     <g id="text_2">
      <!-- 0.001 -->
      <g transform="translate(131.583056 322.182437) scale(0.1 -0.1)">
       <defs>
        <path id="DejaVuSans-31" d="M 794 531 
L 1825 531 
L 1825 4091 
L 703 3866 
L 703 4441 
L 1819 4666 
L 2450 4666 
L 2450 531 
L 3481 531 
L 3481 0 
L 794 0 
L 794 531 
z
" transform="scale(0.015625)"/>
       </defs>
       <use xlink:href="#DejaVuSans-30"/>
       <use xlink:href="#DejaVuSans-2e" x="63.623047"/>
       <use xlink:href="#DejaVuSans-30" x="95.410156"/>
       <use xlink:href="#DejaVuSans-30" x="159.033203"/>
       <use xlink:href="#DejaVuSans-31" x="222.65625"/>
      </g>
     </g>
    </g>
    <g id="xtick_3">
     <g id="line2d_3">
      <g>
       <use xlink:href="#m02ca3cb9f4" x="217.962236" y="307.584" style="stroke: #000000; stroke-width: 0.8"/>
      </g>
     </g>
     <g id="text_3">
      <!-- 0.002 -->
      <g transform="translate(203.648173 322.182437) scale(0.1 -0.1)">
       <defs>
        <path id="DejaVuSans-32" d="M 1228 531 
L 3431 531 
L 3431 0 
L 469 0 
L 469 531 
Q 828 903 1448 1529 
Q 2069 2156 2228 2338 
Q 2531 2678 2651 2914 
Q 2772 3150 2772 3378 
Q 2772 3750 2511 3984 
Q 2250 4219 1831 4219 
Q 1534 4219 1204 4116 
Q 875 4013 500 3803 
L 500 4441 
Q 881 4594 1212 4672 
Q 1544 4750 1819 4750 
Q 2544 4750 2975 4387 
Q 3406 4025 3406 3419 
Q 3406 3131 3298 2873 
Q 3191 2616 2906 2266 
Q 2828 2175 2409 1742 
Q 1991 1309 1228 531 
z
" transform="scale(0.015625)"/>
       </defs>
       <use xlink:href="#DejaVuSans-30"/>
       <use xlink:href="#DejaVuSans-2e" x="63.623047"/>
       <use xlink:href="#DejaVuSans-30" x="95.410156"/>
       <use xlink:href="#DejaVuSans-30" x="159.033203"/>
       <use xlink:href="#DejaVuSans-32" x="222.65625"/>
      </g>
     </g>
    </g>
    <g id="xtick_4">
     <g id="line2d_4">
      <g>
       <use xlink:href="#m02ca3cb9f4" x="290.027352" y="307.584" style="stroke: #000000; stroke-width: 0.8"/>
      </g>
     </g>
     <g id="text_4">
      <!-- 0.003 -->
      <g transform="translate(275.71329 322.182437) scale(0.1 -0.1)">
       <defs>
        <path id="DejaVuSans-33" d="M 2597 2516 
Q 3050 2419 3304 2112 
Q 3559 1806 3559 1356 
Q 3559 666 3084 287 
Q 2609 -91 1734 -91 
Q 1441 -91 1130 -33 
Q 819 25 488 141 
L 488 750 
Q 750 597 1062 519 
Q 1375 441 1716 441 
Q 2309 441 2620 675 
Q 2931 909 2931 1356 
Q 2931 1769 2642 2001 
Q 2353 2234 1838 2234 
L 1294 2234 
L 1294 2753 
L 1863 2753 
Q 2328 2753 2575 2939 
Q 2822 3125 2822 3475 
Q 2822 3834 2567 4026 
Q 2313 4219 1838 4219 
Q 1578 4219 1281 4162 
Q 984 4106 628 3988 
L 628 4550 
Q 988 4650 1302 4700 
Q 1616 4750 1894 4750 
Q 2613 4750 3031 4423 
Q 3450 4097 3450 3541 
Q 3450 3153 3228 2886 
Q 3006 2619 2597 2516 
z
" transform="scale(0.015625)"/>
       </defs>
       <use xlink:href="#DejaVuSans-30"/>
       <use xlink:href="#DejaVuSans-2e" x="63.623047"/>
       <use xlink:href="#DejaVuSans-30" x="95.410156"/>
       <use xlink:href="#DejaVuSans-30" x="159.033203"/>
       <use xlink:href="#DejaVuSans-33" x="222.65625"/>
      </g>
     </g>
    </g>
    <g id="xtick_5">
     <g id="line2d_5">
      <g>
       <use xlink:href="#m02ca3cb9f4" x="362.092469" y="307.584" style="stroke: #000000; stroke-width: 0.8"/>
      </g>
     </g>
     <g id="text_5">
      <!-- 0.004 -->
      <g transform="translate(347.778407 322.182437) scale(0.1 -0.1)">
       <defs>
        <path id="DejaVuSans-34" d="M 2419 4116 
L 825 1625 
L 2419 1625 
L 2419 4116 
z
M 2253 4666 
L 3047 4666 
L 3047 1625 
L 3713 1625 
L 3713 1100 
L 3047 1100 
L 3047 0 
L 2419 0 
L 2419 1100 
L 313 1100 
L 313 1709 
L 2253 4666 
z
" transform="scale(0.015625)"/>
       </defs>
       <use xlink:href="#DejaVuSans-30"/>
       <use xlink:href="#DejaVuSans-2e" x="63.623047"/>
       <use xlink:href="#DejaVuSans-30" x="95.410156"/>
       <use xlink:href="#DejaVuSans-30" x="159.033203"/>
       <use xlink:href="#DejaVuSans-34" x="222.65625"/>
      </g>
     </g>
    </g>
    <g id="text_6">
     <!-- Learning rate -->
     <g transform="translate(202.706875 335.860562) scale(0.1 -0.1)">
      <defs>
       <path id="DejaVuSans-4c" d="M 628 4666 
L 1259 4666 
L 1259 531 
L 3531 531 
L 3531 0 
L 628 0 
L 628 4666 
z
" transform="scale(0.015625)"/>
       <path id="DejaVuSans-65" d="M 3597 1894 
L 3597 1613 
L 953 1613 
Q 991 1019 1311 708 
Q 1631 397 2203 397 
Q 2534 397 2845 478 
Q 3156 559 3463 722 
L 3463 178 
Q 3153 47 2828 -22 
Q 2503 -91 2169 -91 
Q 1331 -91 842 396 
Q 353 884 353 1716 
Q 353 2575 817 3079 
Q 1281 3584 2069 3584 
Q 2775 3584 3186 3129 
Q 3597 2675 3597 1894 
z
M 3022 2063 
Q 3016 2534 2758 2815 
Q 2500 3097 2075 3097 
Q 1594 3097 1305 2825 
Q 1016 2553 972 2059 
L 3022 2063 
z
" transform="scale(0.015625)"/>
       <path id="DejaVuSans-61" d="M 2194 1759 
Q 1497 1759 1228 1600 
Q 959 1441 959 1056 
Q 959 750 1161 570 
Q 1363 391 1709 391 
Q 2188 391 2477 730 
Q 2766 1069 2766 1631 
L 2766 1759 
L 2194 1759 
z
M 3341 1997 
L 3341 0 
L 2766 0 
L 2766 531 
Q 2569 213 2275 61 
Q 1981 -91 1556 -91 
Q 1019 -91 701 211 
Q 384 513 384 1019 
Q 384 1609 779 1909 
Q 1175 2209 1959 2209 
L 2766 2209 
L 2766 2266 
Q 2766 2663 2505 2880 
Q 2244 3097 1772 3097 
Q 1472 3097 1187 3025 
Q 903 2953 641 2809 
L 641 3341 
Q 956 3463 1253 3523 
Q 1550 3584 1831 3584 
Q 2591 3584 2966 3190 
Q 3341 2797 3341 1997 
z
" transform="scale(0.015625)"/>
       <path id="DejaVuSans-72" d="M 2631 2963 
Q 2534 3019 2420 3045 
Q 2306 3072 2169 3072 
Q 1681 3072 1420 2755 
Q 1159 2438 1159 1844 
L 1159 0 
L 581 0 
L 581 3500 
L 1159 3500 
L 1159 2956 
Q 1341 3275 1631 3429 
Q 1922 3584 2338 3584 
Q 2397 3584 2469 3576 
Q 2541 3569 2628 3553 
L 2631 2963 
z
" transform="scale(0.015625)"/>
       <path id="DejaVuSans-6e" d="M 3513 2113 
L 3513 0 
L 2938 0 
L 2938 2094 
Q 2938 2591 2744 2837 
Q 2550 3084 2163 3084 
Q 1697 3084 1428 2787 
Q 1159 2491 1159 1978 
L 1159 0 
L 581 0 
L 581 3500 
L 1159 3500 
L 1159 2956 
Q 1366 3272 1645 3428 
Q 1925 3584 2291 3584 
Q 2894 3584 3203 3211 
Q 3513 2838 3513 2113 
z
" transform="scale(0.015625)"/>
       <path id="DejaVuSans-69" d="M 603 3500 
L 1178 3500 
L 1178 0 
L 603 0 
L 603 3500 
z
M 603 4863 
L 1178 4863 
L 1178 4134 
L 603 4134 
L 603 4863 
z
" transform="scale(0.015625)"/>
       <path id="DejaVuSans-67" d="M 2906 1791 
Q 2906 2416 2648 2759 
Q 2391 3103 1925 3103 
Q 1463 3103 1205 2759 
Q 947 2416 947 1791 
Q 947 1169 1205 825 
Q 1463 481 1925 481 
Q 2391 481 2648 825 
Q 2906 1169 2906 1791 
z
M 3481 434 
Q 3481 -459 3084 -895 
Q 2688 -1331 1869 -1331 
Q 1566 -1331 1297 -1286 
Q 1028 -1241 775 -1147 
L 775 -588 
Q 1028 -725 1275 -790 
Q 1522 -856 1778 -856 
Q 2344 -856 2625 -561 
Q 2906 -266 2906 331 
L 2906 616 
Q 2728 306 2450 153 
Q 2172 0 1784 0 
Q 1141 0 747 490 
Q 353 981 353 1791 
Q 353 2603 747 3093 
Q 1141 3584 1784 3584 
Q 2172 3584 2450 3431 
Q 2728 3278 2906 2969 
L 2906 3500 
L 3481 3500 
L 3481 434 
z
" transform="scale(0.015625)"/>
       <path id="DejaVuSans-20" transform="scale(0.015625)"/>
       <path id="DejaVuSans-74" d="M 1172 4494 
L 1172 3500 
L 2356 3500 
L 2356 3053 
L 1172 3053 
L 1172 1153 
Q 1172 725 1289 603 
Q 1406 481 1766 481 
L 2356 481 
L 2356 0 
L 1766 0 
Q 1100 0 847 248 
Q 594 497 594 1153 
L 594 3053 
L 172 3053 
L 172 3500 
L 594 3500 
L 594 4494 
L 1172 4494 
z
" transform="scale(0.015625)"/>
      </defs>
      <use xlink:href="#DejaVuSans-4c"/>
      <use xlink:href="#DejaVuSans-65" x="53.962891"/>
      <use xlink:href="#DejaVuSans-61" x="115.486328"/>
      <use xlink:href="#DejaVuSans-72" x="176.765625"/>
      <use xlink:href="#DejaVuSans-6e" x="216.128906"/>
      <use xlink:href="#DejaVuSans-69" x="279.507812"/>
      <use xlink:href="#DejaVuSans-6e" x="307.291016"/>
      <use xlink:href="#DejaVuSans-67" x="370.669922"/>
      <use xlink:href="#DejaVuSans-20" x="434.146484"/>
      <use xlink:href="#DejaVuSans-72" x="465.933594"/>
      <use xlink:href="#DejaVuSans-61" x="507.046875"/>
      <use xlink:href="#DejaVuSans-74" x="568.326172"/>
      <use xlink:href="#DejaVuSans-65" x="607.535156"/>
     </g>
    </g>
   </g>
   <g id="matplotlib.axis_2">
    <g id="ytick_1">
     <g id="line2d_6">
      <defs>
       <path id="m1253ee964c" d="M 0 0 
L -3.5 0 
" style="stroke: #000000; stroke-width: 0.8"/>
      </defs>
      <g>
       <use xlink:href="#m1253ee964c" x="57.6" y="307.105628" style="stroke: #000000; stroke-width: 0.8"/>
      </g>
     </g>
     <g id="text_7">
      <!-- 0 -->
      <g transform="translate(44.2375 310.904847) scale(0.1 -0.1)">
       <use xlink:href="#DejaVuSans-30"/>
      </g>
     </g>
    </g>
    <g id="ytick_2">
     <g id="line2d_7">
      <g>
       <use xlink:href="#m1253ee964c" x="57.6" y="255.291166" style="stroke: #000000; stroke-width: 0.8"/>
      </g>
     </g>
     <g id="text_8">
      <!-- 1 -->
      <g transform="translate(44.2375 259.090385) scale(0.1 -0.1)">
       <use xlink:href="#DejaVuSans-31"/>
      </g>
     </g>
    </g>
    <g id="ytick_3">
     <g id="line2d_8">
      <g>
       <use xlink:href="#m1253ee964c" x="57.6" y="203.476704" style="stroke: #000000; stroke-width: 0.8"/>
      </g>
     </g>
     <g id="text_9">
      <!-- 2 -->
      <g transform="translate(44.2375 207.275923) scale(0.1 -0.1)">
       <use xlink:href="#DejaVuSans-32"/>
      </g>
     </g>
    </g>
    <g id="ytick_4">
     <g id="line2d_9">
      <g>
       <use xlink:href="#m1253ee964c" x="57.6" y="151.662242" style="stroke: #000000; stroke-width: 0.8"/>
      </g>
     </g>
     <g id="text_10">
      <!-- 3 -->
      <g transform="translate(44.2375 155.461461) scale(0.1 -0.1)">
       <use xlink:href="#DejaVuSans-33"/>
      </g>
     </g>
    </g>
    <g id="ytick_5">
     <g id="line2d_10">
      <g>
       <use xlink:href="#m1253ee964c" x="57.6" y="99.84778" style="stroke: #000000; stroke-width: 0.8"/>
      </g>
     </g>
     <g id="text_11">
      <!-- 4 -->
      <g transform="translate(44.2375 103.646999) scale(0.1 -0.1)">
       <use xlink:href="#DejaVuSans-34"/>
      </g>
     </g>
    </g>
    <g id="ytick_6">
     <g id="line2d_11">
      <g>
       <use xlink:href="#m1253ee964c" x="57.6" y="48.033318" style="stroke: #000000; stroke-width: 0.8"/>
      </g>
     </g>
     <g id="text_12">
      <!-- 5 -->
      <g transform="translate(44.2375 51.832537) scale(0.1 -0.1)">
       <defs>
        <path id="DejaVuSans-35" d="M 691 4666 
L 3169 4666 
L 3169 4134 
L 1269 4134 
L 1269 2991 
Q 1406 3038 1543 3061 
Q 1681 3084 1819 3084 
Q 2600 3084 3056 2656 
Q 3513 2228 3513 1497 
Q 3513 744 3044 326 
Q 2575 -91 1722 -91 
Q 1428 -91 1123 -41 
Q 819 9 494 109 
L 494 744 
Q 775 591 1075 516 
Q 1375 441 1709 441 
Q 2250 441 2565 725 
Q 2881 1009 2881 1497 
Q 2881 1984 2565 2268 
Q 2250 2553 1709 2553 
Q 1456 2553 1204 2497 
Q 953 2441 691 2322 
L 691 4666 
z
" transform="scale(0.015625)"/>
       </defs>
       <use xlink:href="#DejaVuSans-35"/>
      </g>
     </g>
    </g>
    <g id="text_13">
     <!-- Loss -->
     <g transform="translate(38.157812 185.495187) rotate(-90) scale(0.1 -0.1)">
      <defs>
       <path id="DejaVuSans-6f" d="M 1959 3097 
Q 1497 3097 1228 2736 
Q 959 2375 959 1747 
Q 959 1119 1226 758 
Q 1494 397 1959 397 
Q 2419 397 2687 759 
Q 2956 1122 2956 1747 
Q 2956 2369 2687 2733 
Q 2419 3097 1959 3097 
z
M 1959 3584 
Q 2709 3584 3137 3096 
Q 3566 2609 3566 1747 
Q 3566 888 3137 398 
Q 2709 -91 1959 -91 
Q 1206 -91 779 398 
Q 353 888 353 1747 
Q 353 2609 779 3096 
Q 1206 3584 1959 3584 
z
" transform="scale(0.015625)"/>
       <path id="DejaVuSans-73" d="M 2834 3397 
L 2834 2853 
Q 2591 2978 2328 3040 
Q 2066 3103 1784 3103 
Q 1356 3103 1142 2972 
Q 928 2841 928 2578 
Q 928 2378 1081 2264 
Q 1234 2150 1697 2047 
L 1894 2003 
Q 2506 1872 2764 1633 
Q 3022 1394 3022 966 
Q 3022 478 2636 193 
Q 2250 -91 1575 -91 
Q 1294 -91 989 -36 
Q 684 19 347 128 
L 347 722 
Q 666 556 975 473 
Q 1284 391 1588 391 
Q 1994 391 2212 530 
Q 2431 669 2431 922 
Q 2431 1156 2273 1281 
Q 2116 1406 1581 1522 
L 1381 1569 
Q 847 1681 609 1914 
Q 372 2147 372 2553 
Q 372 3047 722 3315 
Q 1072 3584 1716 3584 
Q 2034 3584 2315 3537 
Q 2597 3491 2834 3397 
z
" transform="scale(0.015625)"/>
      </defs>
      <use xlink:href="#DejaVuSans-4c"/>
      <use xlink:href="#DejaVuSans-6f" x="53.962891"/>
      <use xlink:href="#DejaVuSans-73" x="115.144531"/>
      <use xlink:href="#DejaVuSans-73" x="167.244141"/>
     </g>
    </g>
   </g>
   <g id="line2d_12">
    <path d="M 73.832727 135.082538 
L 73.832752 53.568 
L 73.938103 292.594901 
L 73.94379 286.965124 
L 73.945242 281.33413 
L 73.978395 293.302524 
L 74.054714 291.641885 
L 74.094088 283.192229 
L 74.05719 293.214746 
L 74.169572 288.058957 
L 74.231947 293.820474 
L 74.178821 286.754505 
L 74.281739 291.879744 
L 74.364512 285.502018 
L 74.324545 293.695611 
L 74.395475 288.602624 
L 74.425315 295.488 
L 74.462907 288.116965 
L 74.509923 291.751609 
L 74.616171 287.246647 
L 74.608978 293.609837 
L 74.622945 287.645035 
L 74.69876 285.232988 
L 74.653146 293.301105 
L 74.731857 289.400697 
L 74.742421 294.89296 
L 74.834604 287.120194 
L 74.845752 290.594708 
L 74.846375 290.589384 
L 74.940198 285.416737 
L 74.882524 292.92416 
L 74.958041 289.419925 
L 74.97617 294.198577 
L 74.983221 287.243104 
L 75.072055 292.144349 
L 75.105249 286.210099 
L 75.150623 293.536362 
L 75.184258 291.08335 
L 75.271702 295.068318 
L 75.205186 286.666031 
L 75.291292 289.271259 
L 75.344225 287.910728 
L 75.332196 292.250556 
L 75.399078 290.362597 
L 75.434121 294.210058 
L 75.503492 288.545151 
L 75.510695 286.643413 
L 75.607213 292.78126 
L 75.61158 290.626331 
L 75.612674 291.206621 
L 75.709279 286.130802 
L 75.715054 287.316393 
L 75.725494 283.671487 
L 75.802633 294.087784 
L 75.824545 288.575398 
L 75.838055 289.70973 
L 75.856626 286.023039 
L 75.93652 289.36791 
L 75.948188 288.054063 
L 76.006169 291.39174 
L 76.047971 288.881966 
L 76.098916 294.202276 
L 76.166757 292.134055 
L 76.17394 293.016247 
L 76.22484 287.578607 
L 76.254421 290.603429 
L 76.328448 288.204995 
L 76.356207 291.542433 
L 76.365528 289.235916 
L 76.379575 291.63204 
L 76.40158 287.061255 
L 76.475229 289.545004 
L 76.502978 288.063961 
L 76.539321 292.791071 
L 76.579533 292.501512 
L 76.581221 293.135351 
L 76.634079 288.314424 
L 76.6862 291.124224 
L 76.709085 292.817882 
L 76.771616 288.385686 
L 76.777038 289.03945 
L 76.778848 289.037836 
L 76.889494 294.617875 
L 76.900784 294.01733 
L 77.008194 284.716284 
L 77.037597 288.069358 
L 77.051412 290.679969 
L 77.091211 287.285322 
L 77.105257 283.767071 
L 77.186686 290.742646 
L 77.192875 289.666659 
L 77.306236 292.299831 
L 77.238605 288.013705 
L 77.308371 290.857354 
L 77.342709 294.995356 
L 77.423422 291.842774 
L 77.517292 284.618608 
L 77.542279 287.87196 
L 77.604334 286.364261 
L 77.636918 290.06502 
L 77.662717 287.544295 
L 77.748379 290.620898 
L 77.767674 287.640673 
L 77.828585 291.755819 
L 77.84088 291.034403 
L 77.845808 291.707132 
L 77.855684 288.036813 
L 77.945661 289.64141 
L 78.063566 282.581269 
L 78.071372 284.506569 
L 78.073977 284.074773 
L 78.147575 288.52196 
L 78.155536 288.203401 
L 78.171501 289.789268 
L 78.227847 285.585151 
L 78.260372 287.109245 
L 78.276725 285.284539 
L 78.356619 287.239268 
L 78.370538 286.896473 
L 78.381705 285.174684 
L 78.457799 288.950088 
L 78.460641 288.757044 
L 78.543841 291.342377 
L 78.486303 288.385082 
L 78.578705 290.078597 
L 78.610889 292.050649 
L 78.622647 288.146754 
L 78.68187 289.485306 
L 78.708759 288.203442 
L 78.766014 291.425826 
L 78.79337 289.222916 
L 78.901201 292.593487 
L 78.817813 288.136913 
L 78.907433 291.022768 
L 78.913672 289.275936 
L 78.941846 293.200232 
L 79.017743 290.8198 
L 79.117446 291.697668 
L 79.040091 288.65803 
L 79.120694 291.508636 
L 79.140224 287.584066 
L 79.235639 289.365632 
L 79.383693 292.464522 
L 79.265598 288.033995 
L 79.387104 292.421049 
L 79.504354 288.995592 
L 79.521804 289.580172 
L 79.556865 290.139652 
L 79.592143 285.424075 
L 79.663351 280.906448 
L 79.706498 282.698624 
L 79.837863 288.438491 
L 79.845247 288.013514 
L 79.949576 282.916261 
L 79.878586 291.625246 
L 79.964627 284.393568 
L 80.002417 286.484552 
L 80.021399 284.209027 
L 80.086377 286.09219 
L 80.15592 285.449849 
L 80.183173 287.7444 
L 80.194889 286.095246 
L 80.273549 287.099169 
L 80.293365 284.618625 
L 80.297336 285.245316 
L 80.381284 284.566572 
L 80.321211 286.68818 
L 80.393365 285.654334 
L 80.433797 289.067232 
L 80.507204 286.940847 
L 80.511306 286.992551 
L 80.51541 286.266749 
L 80.519517 286.38184 
L 80.548337 283.785007 
L 80.60219 287.409931 
L 80.631366 285.579314 
L 80.702748 288.308567 
L 80.728119 283.763226 
L 80.732357 283.839929 
L 80.757838 282.288824 
L 80.762094 282.744828 
L 80.766353 282.126939 
L 80.826249 286.730974 
L 80.852077 285.349899 
L 80.865027 286.812175 
L 80.947598 285.123417 
L 80.965105 285.961446 
L 81.035563 287.416217 
L 81.088863 282.771257 
L 81.201175 285.093466 
L 81.115661 281.998393 
L 81.223845 284.661732 
L 81.260262 283.662972 
L 81.242031 284.847294 
L 81.283114 284.583262 
L 81.403081 287.174933 
L 81.319823 284.26714 
L 81.407734 286.854996 
L 81.47317 282.080022 
L 81.553389 284.121762 
L 81.586664 285.995868 
L 81.61052 282.513984 
L 81.668074 285.669466 
L 81.716361 284.712823 
L 81.764946 286.916126 
L 81.77958 288.578807 
L 81.843305 283.419744 
L 81.853154 283.952633 
L 82.072924 289.637186 
L 82.083055 288.512024 
L 82.335203 279.847113 
L 82.361362 280.950286 
L 82.482732 284.880221 
L 82.377096 280.564414 
L 82.514677 283.226004 
L 82.589675 281.3706 
L 82.622015 283.864261 
L 82.785514 287.656436 
L 82.813058 286.451026 
L 82.840687 283.558634 
L 82.91292 286.977348 
L 82.935262 288.801919 
L 82.991357 283.403845 
L 83.346948 271.919532 
L 83.352795 271.970978 
L 83.3645 272.195561 
L 83.376219 271.883734 
L 83.458658 271.922481 
L 83.601643 271.050589 
L 83.482343 271.965373 
L 83.619665 271.120815 
L 83.649775 271.794972 
L 83.710273 270.463834 
L 83.728495 270.36856 
L 83.906385 270.850907 
L 83.924969 270.367989 
L 84.018404 270.61065 
L 84.024663 270.565874 
L 84.062302 270.795009 
L 84.10639 270.728333 
L 84.195136 271.145507 
L 84.207877 270.830299 
L 84.246192 270.091092 
L 84.323248 270.624144 
L 84.36846 270.551284 
L 84.452943 270.812851 
L 84.703798 271.080702 
L 84.717164 271.069624 
L 84.804443 270.860933 
L 84.797704 271.139953 
L 84.824683 271.004887 
L 84.831439 271.093729 
L 84.865277 270.567716 
L 84.912825 270.742771 
L 84.967416 271.075398 
L 84.994813 270.72343 
L 85.008537 270.381648 
L 85.084318 271.306998 
L 85.160614 271.397665 
L 85.13281 271.001937 
L 85.167575 271.251909 
L 85.202448 270.825908 
L 85.286579 270.951372 
L 85.364246 270.723098 
L 85.399723 270.828145 
L 85.478157 270.442895 
L 85.435309 271.062937 
L 85.535534 270.610418 
L 85.643879 271.053532 
L 85.680216 270.826622 
L 85.687497 270.775901 
L 85.775217 270.926813 
L 85.908016 271.308513 
L 85.922862 271.683482 
L 85.952609 270.930829 
L 85.997368 271.087536 
L 86.102447 270.667676 
L 86.057302 271.107605 
L 86.117533 270.695689 
L 86.200834 271.114303 
L 86.231265 270.96014 
L 86.2847 270.391684 
L 86.34605 270.54869 
L 86.361435 270.389187 
L 86.407703 270.685338 
L 86.44639 270.617037 
L 86.57099 271.432897 
L 86.586652 271.336856 
L 86.625889 270.791134 
L 86.696822 271.292035 
L 86.752263 271.600429 
L 86.784051 271.155663 
L 86.79201 271.236689 
L 86.936114 270.861957 
L 86.944167 270.922698 
L 87.073684 271.61183 
L 86.976427 270.869408 
L 87.081821 271.522612 
L 87.171661 269.902814 
L 87.229149 270.436581 
L 87.278621 269.712217 
L 87.26211 270.703804 
L 87.319987 270.540314 
L 87.328276 270.755488 
L 87.386438 270.38257 
L 87.428136 270.490943 
L 87.528735 270.792375 
L 87.545574 271.002914 
L 87.596215 270.429019 
L 87.621605 270.560709 
L 87.630079 270.505687 
L 87.681032 270.870897 
L 87.698058 270.658747 
L 87.809238 271.705478 
L 87.817827 271.421176 
L 87.8781 269.14093 
L 87.938632 269.707568 
L 87.9473 269.858863 
L 87.982028 269.177704 
L 88.025559 269.745643 
L 88.043008 268.875794 
L 88.139365 269.590055 
L 88.262946 270.423431 
L 88.271814 270.380644 
L 88.513321 271.158657 
L 88.567535 270.170495 
L 88.640133 270.389028 
L 88.713087 271.172212 
L 88.7497 270.504028 
L 88.795591 270.822595 
L 88.804787 270.367923 
L 88.813988 269.942284 
L 88.887799 270.430376 
L 88.915572 270.181874 
L 88.934116 270.299697 
L 88.952682 270.159756 
L 89.064562 269.946207 
L 88.999199 270.298759 
L 89.073923 269.991013 
L 89.092661 270.077213 
L 89.233936 270.886617 
L 89.290811 270.586446 
L 89.319327 270.752517 
L 89.347896 270.479297 
L 89.357431 270.328958 
L 89.43392 270.81613 
L 89.443507 270.889617 
L 89.4627 270.410009 
L 89.472305 270.245139 
L 89.559019 270.585154 
L 89.763224 270.9728 
L 89.890963 271.080855 
L 89.78281 270.942826 
L 89.900832 270.974856 
L 89.920587 271.029176 
L 89.940366 270.616521 
L 89.96017 270.187182 
L 90.049588 270.532237 
L 90.089488 270.755525 
L 90.169584 270.621912 
L 90.219844 270.768101 
L 90.229914 270.5198 
L 90.341099 270.661236 
L 90.493931 270.929416 
L 90.50417 270.847022 
L 90.576019 270.741921 
L 90.606906 270.931623 
L 90.617214 270.992123 
L 90.658511 270.607416 
L 90.668851 270.658197 
L 90.783013 271.188801 
L 90.814282 270.860556 
L 90.845608 270.372422 
L 90.939935 270.616477 
L 90.982026 270.711109 
L 91.003111 270.733921 
L 91.013662 270.560305 
L 91.045357 270.522984 
L 91.247451 271.056382 
L 91.279576 271.187086 
L 91.301026 270.704689 
L 91.311761 270.801468 
L 91.408673 270.385672 
L 91.441096 270.540013 
L 91.560494 270.775762 
L 91.571388 270.741909 
L 91.582289 270.685652 
L 91.615032 271.083816 
L 91.713625 271.447924 
L 91.735609 271.402338 
L 91.746611 271.139227 
L 91.790687 272.122764 
L 91.845934 271.185608 
L 91.86808 271.309806 
L 91.934682 271.045225 
L 91.956938 271.173735 
L 92.012696 270.897844 
L 92.091046 270.589073 
L 92.158472 270.630599 
L 92.237451 270.819722 
L 92.203561 270.462726 
L 92.260078 270.561238 
L 92.373635 270.883419 
L 92.39643 270.850839 
L 92.45354 270.551599 
L 92.510826 270.669273 
L 92.568289 270.245124 
L 92.625928 270.515827 
L 92.858263 270.900849 
L 92.928522 271.320787 
L 92.975505 270.945165 
L 93.022604 269.995627 
L 93.09347 270.414472 
L 93.105307 270.340369 
L 93.14086 270.643392 
L 93.176478 271.482473 
L 93.235988 270.530549 
L 93.415619 269.899256 
L 93.487937 270.686801 
L 93.500015 270.78591 
L 93.536296 270.322694 
L 93.584775 269.892925 
L 93.645541 270.346276 
L 93.657717 271.170087 
L 93.718707 268.792185 
L 93.730928 268.977826 
L 93.767635 269.395085 
L 93.80441 268.845005 
L 93.816683 268.422606 
L 93.890481 269.143624 
L 93.902807 269.032081 
L 93.952188 268.906681 
L 93.964552 269.236749 
L 94.063739 269.895464 
L 94.088611 269.727498 
L 94.101059 269.539202 
L 94.175908 270.006496 
L 94.213435 270.278845 
L 94.22596 270.268917 
L 94.276136 271.155043 
L 94.326435 270.083013 
L 94.389482 270.026858 
L 94.452724 269.336424 
L 94.427404 270.043944 
L 94.51616 269.792334 
L 94.605299 270.08823 
L 94.579792 269.622863 
L 94.618065 269.733617 
L 94.630838 269.349721 
L 94.694822 269.833108 
L 94.707643 269.553719 
L 94.733307 270.32813 
L 94.797607 268.920025 
L 94.978699 270.010547 
L 94.991694 269.92686 
L 95.082882 270.104248 
L 95.122083 269.209456 
L 95.292791 269.954448 
L 95.305979 269.789339 
L 95.319175 269.585104 
L 95.37204 270.109031 
L 95.411774 269.601834 
L 95.425035 269.972492 
L 95.464867 269.201117 
L 95.518091 269.512247 
L 95.638323 270.120545 
L 95.678549 269.987645 
L 95.853718 270.518239 
L 95.948621 271.025417 
L 95.962212 270.952088 
L 96.030292 270.365075 
L 96.071241 271.016845 
L 96.112265 270.762648 
L 96.125956 271.04511 
L 96.208282 270.913567 
L 96.318523 271.135453 
L 96.332341 271.175216 
L 96.360003 271.037696 
L 96.373846 271.033488 
L 96.415429 271.050468 
L 96.512752 270.779777 
L 96.610496 270.708594 
L 96.652514 270.755108 
L 96.666538 270.796845 
L 96.70866 270.653288 
L 96.75086 270.720026 
L 96.821366 270.574476 
L 96.779036 270.769799 
L 96.877927 270.683089 
L 97.162827 271.027438 
L 97.292178 270.836138 
L 97.205864 271.165766 
L 97.306594 270.843996 
L 97.32102 270.942299 
L 97.407759 270.845886 
L 97.436743 270.795586 
L 97.62601 270.93124 
L 97.757929 270.806056 
L 97.875804 271.372722 
L 97.802064 270.779271 
L 97.890579 270.991502 
L 98.068591 270.48509 
L 98.098388 270.640348 
L 98.128221 270.902069 
L 98.202964 270.626336 
L 98.262925 270.568292 
L 98.307992 270.655177 
L 98.443692 270.780629 
L 98.36821 270.604269 
L 98.458816 270.764069 
L 98.47395 270.737179 
L 98.534576 271.438461 
L 98.564946 270.542189 
L 98.580145 270.647228 
L 98.61057 270.34354 
L 98.686797 270.615183 
L 98.809249 270.013427 
L 98.747948 270.744237 
L 98.870701 270.286647 
L 98.886087 270.407437 
L 98.916889 270.024692 
L 98.932304 270.319935 
L 98.978605 269.859127 
L 99.040474 270.093082 
L 99.102495 270.479544 
L 99.14911 270.09933 
L 99.164668 270.022717 
L 99.226994 270.262116 
L 99.588358 270.96509 
L 99.604186 270.824832 
L 99.715251 270.579654 
L 99.731157 270.613834 
L 100.035227 271.096751 
L 100.051329 270.960673 
L 100.067441 270.717069 
L 100.099695 270.969612 
L 100.164321 270.765018 
L 100.294052 271.11161 
L 100.342866 271.285344 
L 100.457115 270.405895 
L 100.489848 270.492348 
L 100.571857 270.134634 
L 100.604731 270.219373 
L 100.753165 270.79165 
L 100.802825 269.95414 
L 100.885797 270.126671 
L 101.035789 270.692549 
L 101.102719 270.352373 
L 101.153024 270.538097 
L 101.203422 270.671138 
L 101.237073 270.519423 
L 101.253913 270.468319 
L 101.270765 270.584577 
L 101.338272 270.545857 
L 101.389012 270.698513 
L 101.422891 270.417532 
L 101.439846 270.411489 
L 101.490773 270.353867 
L 101.575861 270.59469 
L 101.781141 271.12169 
L 101.798316 271.306771 
L 101.849905 270.971851 
L 101.867122 271.060763 
L 101.88435 270.580075 
L 101.970648 270.794629 
L 102.126655 270.940131 
L 102.144043 270.858446 
L 102.23114 270.946472 
L 102.248592 271.047056 
L 102.283527 270.736508 
L 102.318505 270.860581 
L 102.353527 270.821175 
L 102.423699 270.888365 
L 102.476441 270.965955 
L 102.511656 270.830029 
L 102.52928 270.81924 
L 102.546915 270.887621 
L 102.670663 271.191392 
L 102.688384 270.981728 
L 102.794943 271.012048 
L 102.84837 271.058783 
L 102.884043 270.97651 
L 102.901896 270.945291 
L 102.973417 271.017637 
L 103.027173 271.076233 
L 103.045114 270.937607 
L 103.081029 270.821405 
L 103.171009 270.891757 
L 103.388091 270.572619 
L 103.406254 270.644179 
L 103.479016 270.929933 
L 103.533705 270.718806 
L 103.60678 270.905463 
L 103.625077 270.92553 
L 103.661705 270.824393 
L 103.680036 270.846914 
L 103.753471 270.847477 
L 103.771858 270.895976 
L 103.863963 270.988255 
L 103.882418 270.910839 
L 103.956352 270.827872 
L 103.993387 270.877396 
L 104.160608 270.910613 
L 104.197894 270.751695 
L 104.272604 270.837802 
L 104.497837 271.227749 
L 104.516682 271.179164 
L 104.554405 270.424602 
L 104.629992 270.642349 
L 104.648918 270.621546 
L 104.743721 270.047963 
L 104.781724 270.138376 
L 104.819774 269.905863 
L 104.85787 269.600853 
L 104.934203 269.871014 
L 105.049056 270.140317 
L 105.068239 270.305548 
L 105.106641 270.000869 
L 105.164332 270.17014 
L 105.318697 269.881835 
L 105.376779 270.015489 
L 105.707943 270.919388 
L 105.766743 270.863159 
L 105.806004 270.922018 
L 105.825652 270.835763 
L 105.983275 271.142399 
L 106.003032 271.187641 
L 106.022802 271.01437 
L 106.102001 270.376632 
L 106.161529 270.421455 
L 106.201275 270.680653 
L 106.280913 270.560999 
L 106.320806 270.453185 
L 106.380737 270.525654 
L 106.521006 270.791479 
L 106.541094 271.080527 
L 106.581307 270.253632 
L 106.66188 270.347353 
L 106.702241 270.304976 
L 106.722441 270.10753 
L 106.783113 270.422579 
L 106.986162 270.857552 
L 107.026922 270.487722 
L 107.108592 270.550082 
L 107.149502 270.645255 
L 107.169976 270.765801 
L 107.231473 270.587837 
L 107.251998 270.538912 
L 107.313647 270.616772 
L 107.4786 270.885194 
L 107.623601 270.52087 
L 107.706739 270.735638 
L 107.748384 270.672435 
L 107.769226 270.616156 
L 107.831829 270.752862 
L 107.915479 270.950971 
L 107.873629 270.735188 
L 107.936424 270.733699 
L 107.978352 270.347128 
L 108.062363 270.407101 
L 108.209879 270.75065 
L 108.336828 271.20042 
L 108.358031 271.287682 
L 108.400478 271.08584 
L 108.42172 270.886155 
L 108.464245 271.197371 
L 108.506822 271.103262 
L 108.52813 271.247903 
L 108.592133 271.072438 
L 108.613493 271.074051 
L 108.763385 271.04768 
L 108.827822 271.243987 
L 108.935481 270.080697 
L 108.957052 270.110309 
L 108.978637 270.124569 
L 109.021846 269.918853 
L 109.065109 270.234662 
L 109.08676 270.072639 
L 109.260449 270.453868 
L 109.434994 270.736555 
L 109.500669 270.49052 
L 109.522588 270.64917 
L 109.54452 270.756618 
L 109.588425 270.470736 
L 109.632384 270.41313 
L 109.720465 270.365826 
L 109.786667 270.732309 
L 110.141814 270.241828 
L 110.275897 271.148883 
L 110.298292 270.667443 
L 110.38801 270.425109 
L 110.432952 270.501957 
L 110.455444 270.670079 
L 110.500469 270.202213 
L 110.523002 270.500966 
L 110.56811 269.676572 
L 110.658492 269.993561 
L 110.726425 270.198564 
L 110.749097 269.941826 
L 110.771783 269.829657 
L 110.817197 270.050423 
L 110.976585 271.026588 
L 110.999411 270.648819 
L 111.090855 269.471922 
L 111.136661 270.031147 
L 111.366537 270.82043 
L 111.389603 270.787762 
L 111.482006 270.457391 
L 111.528293 270.594591 
L 111.59783 270.655797 
L 111.78389 271.035772 
L 111.830548 270.979162 
L 111.900643 270.431287 
L 111.970867 270.471044 
L 112.041221 270.979049 
L 112.088195 270.797204 
L 112.111704 270.267688 
L 112.205884 270.493398 
L 112.229465 270.449489 
L 112.253061 270.480439 
L 112.323935 270.984889 
L 112.371257 270.862068 
L 112.418637 269.440458 
L 112.489817 269.701582 
L 112.680272 269.872225 
L 112.823728 269.468083 
L 112.751934 269.941722 
L 112.847689 269.522945 
L 112.94368 269.764471 
L 112.91966 269.464511 
L 112.991764 269.740631 
L 113.015828 269.474081 
L 113.112232 269.523055 
L 113.184691 269.840517 
L 113.257284 270.213736 
L 113.281511 269.824067 
L 113.305754 269.529874 
L 113.402871 269.59554 
L 113.622261 270.147444 
L 113.941306 270.598332 
L 113.965954 270.575924 
L 114.163681 270.802131 
L 114.213265 270.263868 
L 114.287755 270.521828 
L 114.41221 270.621624 
L 114.4621 270.367149 
L 114.562063 270.469721 
L 114.787879 270.895602 
L 114.83823 270.936851 
L 114.888643 270.760703 
L 115.014947 270.999643 
L 115.11627 270.93182 
L 115.14164 270.96508 
L 115.268722 270.95363 
L 115.447295 270.709559 
L 115.472868 270.791838 
L 115.524061 270.652197 
L 115.626637 270.978165 
L 115.832546 270.628439 
L 116.065406 270.942359 
L 116.117328 270.849625 
L 116.143312 271.003969 
L 116.299557 271.323209 
L 116.430202 270.413479 
L 116.482572 270.73959 
L 116.508781 270.347147 
L 116.535007 270.159439 
L 116.587506 270.397195 
L 116.666375 270.596135 
L 116.771761 270.458756 
L 116.798148 270.337127 
L 116.824552 270.567244 
L 116.850971 270.549724 
L 116.903859 270.378318 
L 116.956811 270.529941 
L 117.11606 270.697549 
L 117.142658 270.666572 
L 117.275897 270.828306 
L 117.356036 271.052299 
L 117.409545 270.924001 
L 117.516759 270.65804 
L 117.463119 271.034689 
L 117.543604 270.793983 
L 117.73198 271.074145 
L 117.785951 270.582846 
L 117.867031 270.674273 
L 117.894091 270.54416 
L 117.948261 270.669249 
L 118.002498 270.607396 
L 118.029641 270.695493 
L 118.111171 270.454257 
L 118.165608 270.499757 
L 118.220112 270.574867 
L 118.247389 270.511474 
L 118.411403 271.72612 
L 118.466209 271.693629 
L 118.576023 270.777951 
L 118.631032 270.864239 
L 118.686108 270.799509 
L 118.824094 271.077056 
L 119.101341 269.930152 
L 119.12916 269.99549 
L 119.156996 270.01342 
L 119.184848 270.177692 
L 119.212718 269.750324 
L 119.240605 269.892792 
L 119.268509 269.297629 
L 119.352325 269.589342 
L 119.380297 269.608154 
L 119.408287 269.873401 
L 119.436294 269.562448 
L 119.464319 269.275784 
L 119.520419 269.589449 
L 119.548495 269.507801 
L 119.689135 270.09054 
L 119.717314 269.994519 
L 119.773726 269.616197 
L 119.830207 269.838163 
L 120.056825 270.357645 
L 120.085231 270.528797 
L 120.113654 270.394057 
L 120.199028 269.877618 
L 120.256032 270.059488 
L 120.341669 270.667741 
L 120.37025 270.21671 
L 120.398848 270.30878 
L 120.427464 269.886664 
L 120.484748 270.335819 
L 120.513417 270.2909 
L 120.657025 269.806035 
L 120.743401 270.174172 
L 120.772229 269.901031 
L 121.003489 270.316426 
L 121.061481 270.052304 
L 121.090504 270.459343 
L 121.148604 270.157595 
L 121.235887 270.21084 
L 121.265018 270.223568 
L 121.352516 269.984871 
L 121.381718 270.049808 
L 121.469431 270.358963 
L 121.527997 270.179172 
L 121.61598 270.326115 
L 121.733544 270.613308 
L 121.76298 270.539948 
L 121.821906 270.402662 
L 121.880905 270.512889 
L 121.910432 270.53083 
L 121.939976 270.466605 
L 121.99912 270.122403 
L 122.058337 270.261272 
L 122.176989 269.885239 
L 122.266169 270.633996 
L 122.295933 270.486026 
L 122.355514 269.998957 
L 122.415169 270.219808 
L 122.624539 270.552346 
L 122.774642 270.370719 
L 122.834812 270.365797 
L 122.864925 269.914666 
L 122.955374 270.085519 
L 123.167072 270.316513 
L 123.258079 270.648628 
L 123.288452 270.512046 
L 123.349254 270.159445 
L 123.41013 270.247696 
L 123.471082 270.422157 
L 123.501586 270.569534 
L 123.532108 270.27119 
L 123.59321 269.723221 
L 123.654386 270.046971 
L 123.685002 269.875722 
L 123.746292 269.975231 
L 123.776965 270.225919 
L 123.807656 270.05621 
L 123.961398 269.246825 
L 123.992204 269.438799 
L 124.023028 269.090298 
L 124.053871 269.262668 
L 124.301298 269.729855 
L 124.549944 270.783709 
L 124.581111 270.699565 
L 124.612296 270.384774 
L 124.643502 270.840637 
L 124.674726 271.077569 
L 124.705969 270.75831 
L 124.768514 270.484793 
L 124.862475 270.641907 
L 125.050917 270.767261 
L 125.082392 270.869972 
L 125.113886 270.697793 
L 125.176932 270.254681 
L 125.240055 270.412036 
L 125.303256 270.522591 
L 125.366535 270.839034 
L 125.398204 270.48999 
L 125.429892 270.7869 
L 125.556839 270.183928 
L 125.588624 270.299163 
L 125.779748 270.591201 
L 125.875574 270.604014 
L 125.907556 270.351899 
L 125.971577 270.501144 
L 126.099857 270.64292 
L 126.260651 270.412191 
L 126.325107 270.858865 
L 126.357364 270.706803 
L 126.389642 270.445734 
L 126.486593 270.504988 
L 126.746005 270.77116 
L 126.778522 270.946335 
L 126.811058 270.884636 
L 126.908787 270.103094 
L 126.974039 270.230707 
L 127.072069 270.24558 
L 127.170279 270.630905 
L 127.203056 270.898467 
L 127.26867 270.774456 
L 127.400141 269.580977 
L 127.43306 269.709682 
L 127.630994 271.888083 
L 127.796498 270.357566 
L 127.82966 271.035236 
L 127.896045 270.119343 
L 127.929268 269.93107 
L 127.995775 270.10896 
L 128.029059 270.04021 
L 128.062364 270.281498 
L 128.129035 269.978758 
L 128.229195 270.327274 
L 128.262623 270.251772 
L 128.363029 270.344008 
L 128.396539 270.1081 
L 128.463621 270.250323 
L 128.497193 270.268157 
L 128.530785 270.006145 
L 128.598032 270.139567 
L 128.699057 270.257904 
L 128.834047 270.911126 
L 128.867847 270.645462 
L 128.935508 269.564259 
L 129.003252 269.70315 
L 129.138991 269.88116 
L 129.172977 269.506965 
L 129.241014 269.551467 
L 129.309133 269.782657 
L 129.41147 268.782037 
L 129.4798 269.125902 
L 129.650991 269.781484 
L 129.685293 269.705745 
L 129.719615 269.138112 
L 129.788323 269.633229 
L 129.822709 269.56716 
L 129.857116 269.619752 
L 129.960464 269.85491 
L 130.029468 269.336505 
L 130.064002 269.459571 
L 130.133134 269.77801 
L 130.167732 269.199866 
L 130.236991 269.414868 
L 130.410512 269.892648 
L 130.44528 269.717837 
L 130.51488 269.865634 
L 130.584566 270.200092 
L 130.619441 270.040602 
L 130.899215 268.938462 
L 131.004485 269.389207 
L 131.039618 269.114569 
L 131.180367 269.352097 
L 131.533756 270.596584 
L 131.640196 268.901068 
L 131.67572 269.187585 
L 131.924999 269.75283 
L 131.996418 269.603092 
L 132.032161 269.470945 
L 132.103712 269.554278 
L 132.211204 269.981965 
L 132.282976 268.326534 
L 132.354835 268.793023 
L 132.462791 268.045917 
L 132.607041 268.774133 
L 132.824082 269.357241 
L 133.224074 270.123795 
L 133.333632 269.653796 
L 133.590056 270.404944 
L 133.626778 270.129444 
L 133.663523 270.429431 
L 133.73708 270.783398 
L 133.847585 270.309098 
L 133.884465 270.35485 
L 133.958293 270.513703 
L 134.032213 270.421753 
L 134.254516 268.342664 
L 134.477641 269.564353 
L 134.514909 269.325385 
L 134.626848 269.688827 
L 134.664207 269.618969 
L 134.813874 268.899749 
L 134.888845 269.460442 
L 134.926365 269.202477 
L 134.963908 269.013869 
L 135.039064 269.169468 
L 135.189653 269.354392 
L 135.227358 269.328447 
L 135.378409 269.912546 
L 135.454075 268.964463 
L 135.529833 269.395358 
L 135.681629 269.615885 
L 135.719636 269.778059 
L 135.757667 269.587318 
L 135.833798 269.365231 
L 135.871899 269.584659 
L 136.17755 269.988137 
L 136.254198 270.458268 
L 136.292557 270.187815 
L 136.446229 269.833337 
L 136.60028 270.300152 
L 136.677447 270.444743 
L 136.793376 270.882466 
L 136.832067 270.696183 
L 136.909519 270.105033 
L 136.948281 270.158125 
L 137.103567 270.473563 
L 137.181353 270.14103 
L 137.259235 270.844859 
L 137.298212 270.268221 
L 137.376237 270.222457 
L 137.532576 270.5276 
L 137.689299 270.314049 
L 137.846408 270.528121 
L 137.964494 270.523725 
L 138.12228 270.234803 
L 138.161787 270.327705 
L 138.439017 270.918772 
L 138.478719 269.761389 
L 138.558196 270.027915 
L 138.677594 270.438889 
L 138.717443 270.414844 
L 138.877081 269.801928 
L 138.917052 269.795964 
L 138.997068 270.120751 
L 139.077182 268.62526 
L 139.157394 269.061199 
L 139.398624 269.707437 
L 139.479232 269.696017 
L 139.559938 269.561627 
L 139.600329 269.659595 
L 139.640744 269.809578 
L 139.681185 269.681791 
L 139.843194 269.154118 
L 139.883759 269.191432 
L 140.127671 269.637818 
L 140.16841 269.546148 
L 140.331619 271.243803 
L 140.454288 269.313966 
L 140.577184 269.750091 
L 140.6182 269.148878 
L 140.700307 269.536004 
L 140.741399 269.516446 
L 140.906017 270.032905 
L 140.947234 269.983383 
L 140.988477 269.883489 
L 141.029746 269.18699 
L 141.07104 270.018869 
L 141.153703 269.278622 
L 141.236469 269.488701 
L 141.360808 269.928642 
L 141.402305 269.804429 
L 141.610174 269.256476 
L 141.651825 269.523332 
L 141.693501 269.364005 
L 141.77693 267.442237 
L 141.860461 267.736623 
L 141.985951 268.033462 
L 142.06974 268.149177 
L 142.49023 269.603865 
L 142.532421 269.241964 
L 142.616882 268.913808 
L 142.659151 269.060655 
L 142.701446 269.134032 
L 142.743767 268.914073 
L 142.786114 269.007606 
L 142.913312 269.412452 
L 143.083273 268.29815 
L 143.211019 268.728694 
L 143.253653 268.304595 
L 143.339 268.395281 
L 143.681439 269.668795 
L 143.724362 269.501562 
L 143.810288 269.533256 
L 144.0687 269.836899 
L 144.111861 269.702201 
L 144.155049 269.824962 
L 144.501508 271.132129 
L 144.544935 271.577667 
L 144.588389 271.332421 
L 144.63187 271.290265 
L 144.718911 269.93587 
L 144.762472 270.24805 
L 144.80606 270.725014 
L 144.893315 270.646032 
L 144.936983 270.565799 
L 144.980678 270.660487 
L 145.111924 270.649405 
L 145.287295 270.723244 
L 145.331205 270.273498 
L 145.419106 270.292927 
L 145.463097 270.450773 
L 145.639332 269.884892 
L 145.816001 269.969189 
L 145.904498 270.207131 
L 145.948787 269.823299 
L 145.993104 270.094591 
L 146.037448 270.381298 
L 146.081819 270.329869 
L 146.126217 269.7502 
L 146.215096 270.007944 
L 146.348619 270.077249 
L 146.482388 270.362725 
L 146.616404 270.163879 
L 146.705885 270.241673 
L 146.840313 270.55635 
L 146.885177 270.459413 
L 146.930069 270.373683 
L 146.974989 271.108776 
L 147.019936 270.404149 
L 147.109914 269.495649 
L 147.154944 269.746918 
L 147.425706 270.366375 
L 147.561462 269.927008 
L 147.74286 270.077957 
L 147.833726 269.659613 
L 147.924704 269.840223 
L 148.244008 270.175085 
L 148.289735 270.412381 
L 148.33549 270.400746 
L 148.381273 270.236808 
L 148.427085 270.476137 
L 148.472924 270.437111 
L 148.610612 270.862594 
L 148.702545 270.457771 
L 148.748554 270.60097 
L 148.88675 270.448068 
L 149.071408 270.451238 
L 149.2102 270.188161 
L 149.395654 270.422685 
L 149.581564 270.541507 
L 149.674691 270.616733 
L 149.861288 270.30998 
L 150.282811 270.471187 
L 150.329791 270.38293 
L 150.423837 270.602568 
L 150.470904 270.516447 
L 150.753911 270.688095 
L 150.990549 270.291772 
L 151.037964 270.287831 
L 151.180383 270.467466 
L 151.275475 270.513706 
L 151.466011 270.544993 
L 151.60922 270.284705 
L 151.704839 270.397808 
L 151.800576 270.420546 
L 152.088494 270.11498 
L 152.136583 270.239257 
L 152.184702 270.037828 
L 152.232851 270.166801 
L 152.281029 270.277522 
L 152.329237 270.215676 
L 152.570721 270.031929 
L 152.619107 269.827247 
L 152.667522 269.977223 
L 153.153318 270.544415 
L 153.202062 270.498609 
L 153.299639 270.417021 
L 153.446231 270.818575 
L 153.495155 270.738684 
L 153.642107 270.383405 
L 153.691151 270.34675 
L 153.78933 270.452036 
L 153.838465 269.885243 
L 153.887629 270.174079 
L 154.133908 270.792361 
L 154.183254 270.574808 
L 154.282038 270.468446 
L 154.331475 270.504097 
L 154.529529 270.949134 
L 154.579119 270.206377 
L 154.628739 270.313412 
L 154.728071 270.703184 
L 154.777782 270.35757 
L 154.827524 270.481917 
L 154.9271 270.666608 
L 154.976934 270.571112 
L 155.42682 270.617223 
L 155.980068 271.180056 
L 156.030549 270.934526 
L 156.081061 271.176504 
L 156.131604 271.354738 
L 156.232783 270.825009 
L 156.28342 270.976337 
L 156.435515 271.150233 
L 156.486276 270.949663 
L 156.537068 270.979609 
L 156.587891 271.028118 
L 156.638746 270.817091 
L 156.689631 270.849798 
L 156.893487 270.883315 
L 156.995603 270.834761 
L 157.046708 271.040139 
L 157.200212 270.216335 
L 157.251442 269.978093 
L 157.302705 270.0166 
L 157.61094 270.410554 
L 157.713938 270.329317 
L 157.765484 270.37776 
L 157.920314 270.84701 
L 158.075429 269.961365 
L 158.127198 270.028905 
L 158.282694 270.761869 
L 158.33459 270.504077 
L 158.490469 268.714522 
L 158.542493 268.864582 
L 158.594549 268.916111 
L 158.750907 269.14974 
L 158.855307 269.162778 
L 159.064491 269.657808 
L 159.116867 269.597057 
L 159.274189 270.747015 
L 159.326695 269.294999 
L 159.379232 269.529376 
L 159.537038 269.80109 
L 159.589705 269.403895 
L 159.642404 269.506888 
L 159.695136 269.490471 
L 159.7479 269.23987 
L 159.800696 269.36079 
L 160.277325 270.42057 
L 160.436788 268.370576 
L 160.490008 268.500719 
L 160.596545 269.236498 
L 160.863463 266.780599 
L 160.916944 266.476951 
L 161.131201 267.746115 
L 161.184847 267.550469 
L 161.238526 267.640543 
L 161.292239 267.68655 
L 161.345984 267.550286 
L 161.399762 267.801007 
L 161.453574 267.540232 
L 161.507418 267.661672 
L 161.615207 268.732347 
L 161.66915 268.678351 
L 161.723127 268.563452 
L 161.939367 266.393839 
L 162.156139 267.782888 
L 162.264725 267.974053 
L 162.319068 268.567684 
L 162.373444 267.979455 
L 162.482297 267.288764 
L 162.536774 267.33044 
L 162.645827 267.508472 
L 162.700404 267.452125 
L 162.809659 268.135008 
L 162.864337 268.091712 
L 163.138231 268.868204 
L 163.248024 268.461437 
L 163.302971 268.574457 
L 163.412967 268.720519 
L 163.468015 268.594387 
L 163.578214 269.025546 
L 163.633364 268.956842 
L 163.743766 269.145255 
L 163.909623 269.610261 
L 164.020365 267.85545 
L 164.075787 268.071431 
L 164.242257 267.572848 
L 164.520389 268.970635 
L 164.576118 268.590079 
L 164.631881 269.063467 
L 164.687679 267.833367 
L 164.743511 268.416432 
L 164.911212 268.829989 
L 164.967182 268.713072 
L 165.023185 268.795409 
L 165.191403 268.921129 
L 165.416176 268.635161 
L 165.472455 268.711804 
L 165.528769 268.785757 
L 165.641501 268.570719 
L 165.867382 269.151354 
L 165.923938 269.162194 
L 166.32081 270.152786 
L 166.434516 271.07769 
L 166.491422 271.038716 
L 166.890739 268.655385 
L 166.947925 268.672883 
L 167.005146 268.715191 
L 167.062402 268.918089 
L 167.119693 268.135246 
L 167.177019 268.25021 
L 167.579292 269.175581 
L 167.6369 269.015074 
L 167.694545 269.252251 
L 167.752224 269.155786 
L 168.041155 269.54376 
L 168.099047 269.95625 
L 168.156975 269.91868 
L 168.272939 270.085642 
L 168.447151 269.050831 
L 168.563471 269.327561 
L 168.679934 269.904547 
L 168.738219 269.505003 
L 168.79654 269.674016 
L 169.030183 270.339759 
L 169.088683 270.159953 
L 169.147219 270.223389 
L 169.205792 270.349252 
L 169.2644 270.004552 
L 169.323044 270.132285 
L 169.440441 270.05998 
L 169.616807 270.228962 
L 169.675668 269.10599 
L 169.734565 269.268511 
L 170.088708 269.344179 
L 170.384826 269.994088 
L 170.622376 269.660146 
L 170.741371 269.703176 
L 170.800923 269.893878 
L 170.860511 269.487607 
L 170.920136 269.579784 
L 170.979798 269.561953 
L 171.218812 269.992125 
L 171.33854 270.083078 
L 171.398459 270.129974 
L 171.458414 270.03884 
L 171.638503 270.082842 
L 171.758746 270.1657 
L 171.818923 270.082044 
L 171.879137 270.355775 
L 171.939388 270.328737 
L 171.999677 270.290955 
L 172.060002 269.917794 
L 172.120364 270.068997 
L 172.422732 270.269064 
L 172.54394 270.341151 
L 172.604599 270.43671 
L 172.665296 270.393057 
L 172.969341 270.36683 
L 173.09122 270.160103 
L 173.335429 270.2939 
L 173.396575 270.545601 
L 173.457759 270.350085 
L 173.51898 269.950338 
L 173.580239 270.088391 
L 173.641535 270.111031 
L 173.764241 270.33793 
L 174.010106 270.288542 
L 174.133265 270.452854 
L 174.256575 270.166192 
L 174.503651 270.264762 
L 174.813351 272.071425 
L 174.875406 270.72855 
L 174.937498 271.099699 
L 175.061797 270.63843 
L 175.124004 270.709243 
L 175.248533 270.710895 
L 175.310854 270.879773 
L 175.435612 269.622084 
L 175.498049 269.634164 
L 175.623037 269.827709 
L 175.748179 269.537674 
L 175.936181 269.957411 
L 175.998925 269.868186 
L 176.313225 270.461673 
L 176.439216 269.754444 
L 176.502269 269.988307 
L 176.818117 270.210423 
L 176.881404 270.157113 
L 176.944729 270.235448 
L 177.261938 270.40818 
L 177.325497 270.316932 
L 177.452732 270.503017 
L 177.516408 270.367227 
L 177.580124 270.446404 
L 177.707672 270.792386 
L 177.771504 270.675469 
L 177.835377 270.068358 
L 177.899288 270.198185 
L 177.963238 270.743817 
L 178.027228 270.610741 
L 178.219434 270.464382 
L 178.283581 270.46615 
L 178.47626 270.713609 
L 178.604909 270.66884 
L 178.927226 270.617539 
L 179.834998 270.717904 
L 179.965318 270.62582 
L 180.357241 270.585064 
L 180.619327 271.506942 
L 180.750611 269.657612 
L 180.94784 270.191898 
L 181.211379 270.452265 
L 181.607903 270.550698 
L 181.674133 270.482462 
L 181.806714 270.749706 
L 181.873066 270.24226 
L 181.939458 270.303097 
L 182.005891 270.415117 
L 182.138881 269.571513 
L 182.272033 269.586749 
L 182.338671 269.459711 
L 182.53883 268.857914 
L 182.605631 268.862665 
L 182.672474 269.021427 
L 182.739358 268.938756 
L 183.007304 269.096235 
L 183.074393 268.924723 
L 183.141524 268.962581 
L 183.275909 269.542243 
L 183.343164 269.205816 
L 183.41046 269.1293 
L 183.545176 267.857987 
L 183.680057 268.143556 
L 183.74756 269.298495 
L 183.88269 267.095164 
L 184.017987 268.190905 
L 184.15345 268.345203 
L 184.424875 268.013046 
L 184.492836 267.530646 
L 184.560838 267.68089 
L 184.696968 267.763283 
L 184.765096 267.972968 
L 184.833266 267.727697 
L 184.901477 268.182711 
L 184.969731 267.889234 
L 185.038026 267.636595 
L 185.106364 267.869399 
L 185.174743 267.808233 
L 185.243165 267.577215 
L 185.311628 268.127291 
L 185.380134 267.889465 
L 185.448681 267.36561 
L 185.517271 267.554778 
L 185.654577 267.505481 
L 185.723293 267.29993 
L 185.929696 267.995865 
L 186.067509 268.12377 
L 186.136479 268.511725 
L 186.343643 267.357313 
L 186.412783 267.480054 
L 186.55119 267.903952 
L 186.620457 267.797957 
L 186.759119 267.283918 
L 186.828514 267.465643 
L 187.036955 267.708936 
L 187.106521 267.63718 
L 187.17613 267.715793 
L 187.454992 268.203941 
L 187.524815 268.217266 
L 187.59468 267.96264 
L 187.664589 268.021372 
L 187.73454 268.101236 
L 187.804535 268.566538 
L 187.944652 267.244094 
L 188.014776 267.265685 
L 188.084943 267.32128 
L 188.295702 266.868775 
L 188.577318 268.002426 
L 189.001043 268.683226 
L 189.071815 268.595986 
L 189.284395 269.063296 
L 189.355342 268.991279 
L 189.71073 269.728082 
L 189.853192 270.477634 
L 189.924488 270.463097 
L 190.13864 269.731706 
L 190.353187 269.961878 
L 190.424791 269.834825 
L 190.56813 270.089115 
L 190.639866 269.830604 
L 190.855338 270.140207 
L 190.999206 270.115566 
L 191.071207 270.139695 
L 191.287475 269.668162 
L 191.359652 269.830262 
L 191.431874 269.786075 
L 191.576452 269.341149 
L 191.648807 269.590251 
L 191.721207 269.29759 
L 191.86614 267.549873 
L 192.011251 267.596313 
L 192.156541 268.202937 
L 192.229253 268.966393 
L 192.30201 267.874703 
L 192.374811 268.330961 
L 192.447657 267.818671 
L 192.520547 268.008439 
L 192.593483 267.858054 
L 192.666463 267.911469 
L 192.739488 267.986559 
L 192.885673 267.38878 
L 192.958833 267.655633 
L 193.032038 267.601945 
L 193.105288 267.353924 
L 193.178583 266.65479 
L 193.251923 266.915161 
L 193.398738 267.134777 
L 193.545733 267.509544 
L 193.619299 267.013525 
L 193.692909 267.264404 
L 193.914013 267.781972 
L 194.283426 268.418787 
L 194.357445 268.204326 
L 194.505619 268.225201 
L 194.653975 268.512681 
L 194.728221 268.863732 
L 194.802514 268.643928 
L 194.876851 269.872612 
L 195.249226 266.523054 
L 195.772476 267.734359 
L 195.92239 266.999595 
L 195.997416 266.945206 
L 196.222771 267.476579 
L 196.297981 266.842147 
L 196.373238 266.963417 
L 196.448541 267.031939 
L 196.52389 267.438821 
L 196.674728 265.920088 
L 196.901332 267.075101 
L 197.204121 267.962844 
L 197.355795 267.489662 
L 197.431702 267.660521 
L 197.507655 267.604342 
L 197.583655 266.50639 
L 197.659702 266.687777 
L 197.888123 267.920839 
L 198.116966 266.3901 
L 198.575918 267.847894 
L 198.652574 267.556369 
L 198.729278 267.639835 
L 198.882827 267.816694 
L 198.959672 267.568674 
L 199.113504 268.158918 
L 199.190491 268.022875 
L 199.498912 268.854121 
L 199.576136 268.391126 
L 199.653407 268.921898 
L 199.730726 268.819406 
L 199.885506 268.590211 
L 199.962968 268.934546 
L 200.118033 267.924882 
L 200.195637 266.789746 
L 200.273289 266.925725 
L 200.428736 267.437496 
L 200.584374 266.083836 
L 200.974308 267.734817 
L 201.130616 266.593671 
L 201.208843 266.885828 
L 201.287118 267.267667 
L 201.443811 266.237216 
L 201.915048 267.685902 
L 202.309075 268.319509 
L 202.388025 268.801136 
L 202.467025 268.767955 
L 202.704314 266.840628 
L 202.862749 267.33299 
L 203.02138 267.181184 
L 203.180206 267.503259 
L 203.259692 267.61349 
L 203.498443 268.353301 
L 203.578124 267.721666 
L 203.657855 267.939959 
L 203.89734 268.284572 
L 204.217342 269.476438 
L 204.377638 268.323856 
L 204.77924 268.996544 
L 204.859709 268.815273 
L 205.020794 269.465127 
L 205.101412 269.400712 
L 205.182078 269.130526 
L 205.262794 269.532725 
L 205.34356 269.471021 
L 205.505241 269.420853 
L 205.66712 269.256761 
L 205.748134 268.840713 
L 205.829198 268.930126 
L 205.991476 269.202248 
L 206.235266 268.273546 
L 206.316629 268.339991 
L 206.642583 269.0441 
L 206.887574 269.15331 
L 207.296898 269.548384 
L 207.46098 270.007575 
L 208.036857 269.361522 
L 208.284421 269.270404 
L 208.532441 269.712017 
L 208.615216 269.698782 
L 208.946825 269.985177 
L 209.029854 269.980545 
L 209.112935 270.333403 
L 209.196067 269.9462 
L 209.279249 270.282581 
L 209.362483 270.170573 
L 209.529105 270.253927 
L 209.695931 270.100755 
L 209.862962 270.21829 
L 210.030199 269.653079 
L 210.197641 270.409158 
L 210.281439 269.959275 
L 210.365289 270.095831 
L 211.968261 270.641177 
L 212.053148 270.501346 
L 212.138086 270.665601 
L 212.223077 270.483568 
L 212.648814 271.126406 
L 212.904885 270.866348 
L 213.075862 271.009459 
L 213.247048 270.507953 
L 213.332721 269.910298 
L 213.418445 269.961649 
L 213.504223 269.829724 
L 213.675936 270.104737 
L 213.761872 269.807602 
L 213.933902 270.219704 
L 214.019996 270.20979 
L 214.106143 269.980657 
L 214.192343 270.039476 
L 214.278596 270.205479 
L 214.624139 269.527397 
L 214.797229 269.702603 
L 214.883854 269.650494 
L 215.144048 270.214415 
L 215.578771 270.146388 
L 215.753035 270.180861 
L 216.014832 270.201696 
L 216.102205 270.266107 
L 216.277112 269.87981 
L 216.715322 270.583295 
L 216.803125 270.902516 
L 217.242952 269.643865 
L 218.038054 269.970067 
L 218.126671 269.814123 
L 218.304067 270.048606 
L 218.392846 269.85201 
L 218.481681 270.238315 
L 218.57057 270.152902 
L 218.926672 267.662453 
L 219.015834 267.761262 
L 219.28365 268.379705 
L 219.55196 268.674677 
L 219.641507 268.359929 
L 219.820765 268.509906 
L 220.000244 268.234905 
L 220.269876 268.677984 
L 220.359864 268.524892 
L 220.449907 268.701416 
L 220.540005 267.940363 
L 220.810633 268.332106 
L 220.900953 267.928488 
L 221.353387 268.685387 
L 221.53475 268.195204 
L 221.807212 268.574607 
L 221.898145 268.663083 
L 222.171278 268.420601 
L 222.536239 268.916738 
L 222.62762 268.444052 
L 222.902098 269.435183 
L 222.993703 269.230697 
L 223.085365 269.289545 
L 223.268857 269.484352 
L 223.360688 269.482929 
L 223.544519 269.34934 
L 223.636519 269.486591 
L 223.728576 269.159731 
L 223.820689 269.289759 
L 223.912859 269.10994 
L 224.005085 269.263807 
L 224.097368 268.909354 
L 224.189708 269.109993 
L 224.282105 268.92194 
L 224.467068 269.051664 
L 224.652259 267.663132 
L 225.023324 268.508136 
L 225.116233 267.852505 
L 225.209199 268.308227 
L 225.302222 267.627486 
L 225.674886 268.351929 
L 225.861562 268.816062 
L 225.954986 268.741246 
L 226.048467 268.333468 
L 226.235602 268.57567 
L 226.422968 269.118234 
L 226.610563 269.294604 
L 226.798389 268.290951 
L 226.892389 268.283055 
L 227.174735 268.634584 
L 227.268965 268.753527 
L 227.363254 269.219168 
L 227.552006 268.573008 
L 227.646469 268.65851 
L 227.835568 267.663124 
L 228.0249 268.115045 
L 228.119654 266.958123 
L 228.214465 266.975466 
L 228.594295 268.573733 
L 228.689398 268.468037 
L 228.87978 268.038659 
L 229.070396 268.707758 
L 229.261246 266.477875 
L 229.356759 266.787078 
L 229.452331 266.448002 
L 229.547961 266.718856 
L 229.835206 265.851266 
L 229.931071 265.738543 
L 230.315124 266.100452 
L 230.507505 266.562745 
L 230.700122 266.244413 
L 230.989491 266.981762 
L 231.086066 266.910422 
L 231.182701 266.500735 
L 231.376148 266.799253 
L 231.666765 267.917047 
L 231.763756 268.678315 
L 231.957918 267.400778 
L 232.055088 267.896659 
L 232.152318 267.440974 
L 232.249607 267.5317 
L 232.346957 267.806374 
L 232.639364 267.208937 
L 232.834602 267.442913 
L 232.932311 267.549939 
L 233.323748 268.589441 
L 233.421758 268.368366 
L 233.716148 268.904005 
L 233.814398 268.892092 
L 233.91271 269.009677 
L 234.109513 269.488025 
L 234.208005 269.611763 
L 234.503846 268.454564 
L 234.701376 268.772099 
L 234.800232 268.704021 
L 235.196265 269.391432 
L 235.295425 269.251289 
L 235.394646 269.412616 
L 235.493928 269.351487 
L 235.891667 269.76495 
L 236.390217 270.166254 
L 236.490111 270.037681 
L 236.690083 270.575231 
L 236.890301 269.54701 
L 237.090765 269.566965 
L 237.19109 269.999826 
L 237.492433 268.171959 
L 237.895089 268.913533 
L 237.995908 268.936384 
L 238.096788 268.768295 
L 238.298736 269.036017 
L 238.399803 269.14717 
L 238.500931 269.436833 
L 238.602122 269.05305 
L 239.007509 269.409691 
L 239.109011 270.216879 
L 239.312203 268.266173 
L 239.413892 268.324484 
L 239.515644 268.43407 
L 239.617459 268.878598 
L 239.719336 268.642381 
L 240.025343 269.4427 
L 240.127471 269.23968 
L 240.331915 269.582948 
L 240.639052 269.482733 
L 240.741557 269.041326 
L 240.844124 269.070295 
L 240.946755 268.939741 
L 241.152206 269.184455 
L 241.255027 269.539954 
L 241.35791 269.211363 
L 241.563867 268.212211 
L 241.66694 268.119661 
L 241.873276 265.718158 
L 241.97654 265.977777 
L 242.079866 265.675706 
L 242.183257 267.03631 
L 242.390228 266.296969 
L 242.701162 266.963585 
L 242.804934 267.372857 
L 242.90877 266.977232 
L 243.01267 267.96072 
L 243.22066 266.684038 
L 243.533126 267.401528 
L 243.741757 266.503497 
L 243.846169 266.611207 
L 243.950644 266.770382 
L 244.159788 266.674031 
L 244.473987 267.157188 
L 244.683774 267.851052 
L 244.788765 267.961854 
L 244.89382 268.541613 
L 245.314685 267.79865 
L 245.525506 267.643274 
L 245.736586 268.584052 
L 245.842224 268.123274 
L 245.947926 268.226068 
L 246.159526 267.976114 
L 246.477413 268.191266 
L 246.583505 267.873072 
L 247.008528 268.723929 
L 247.114947 268.117918 
L 247.221432 268.214916 
L 247.327982 267.972286 
L 247.541278 268.212053 
L 247.648024 267.911486 
L 247.754836 268.080926 
L 247.968657 267.105223 
L 248.289881 267.660737 
L 248.397088 266.730651 
L 248.50436 266.747632 
L 248.826573 267.2018 
L 249.041711 267.628348 
L 249.364915 267.972764 
L 249.472782 268.200239 
L 249.580715 268.141239 
L 249.796781 268.441174 
L 250.013112 268.187731 
L 250.121378 268.411202 
L 250.338108 268.198576 
L 250.555105 268.602607 
L 250.663703 268.590582 
L 251.644097 269.554836 
L 251.8627 268.510627 
L 252.081571 268.851001 
L 252.300711 268.840649 
L 252.410382 269.027982 
L 252.629927 268.507297 
L 252.959749 268.805073 
L 253.069826 269.220009 
L 253.179969 269.033437 
L 253.40046 267.772306 
L 253.731704 268.342351 
L 254.174314 267.542906 
L 254.285136 267.499334 
L 254.396027 267.788705 
L 254.618013 267.464786 
L 254.729108 267.572921 
L 255.062803 268.151335 
L 255.732041 269.073581 
L 255.843821 269.424847 
L 255.955669 269.361699 
L 256.067586 269.0102 
L 256.515943 269.235026 
L 256.740535 269.453766 
L 256.965403 268.81936 
L 257.190547 269.096543 
L 257.303223 269.502172 
L 257.528783 268.379683 
L 258.320428 269.499011 
L 258.660748 269.511873 
L 258.774327 269.555095 
L 259.001696 268.521167 
L 259.115485 268.592394 
L 259.229343 268.24407 
L 259.457271 268.254544 
L 259.685479 267.924316 
L 260.028317 268.373254 
L 260.257227 268.372472 
L 260.486418 268.623221 
L 260.60112 268.600196 
L 260.830734 268.775025 
L 260.945647 269.387736 
L 261.06063 268.411243 
L 261.406005 268.454243 
L 261.867496 269.268966 
L 261.983046 268.89112 
L 262.330122 269.006094 
L 262.445957 269.314334 
L 262.561862 270.065426 
L 262.793887 268.629829 
L 262.910006 268.723776 
L 263.026197 268.605813 
L 263.375197 268.764319 
L 263.491674 268.814157 
L 263.608222 268.701599 
L 263.841533 269.168865 
L 263.958296 269.133599 
L 264.192038 269.323588 
L 264.309016 269.329328 
L 264.426067 269.528691 
L 264.660383 269.53644 
L 264.894988 269.682575 
L 265.129881 269.419383 
L 265.247436 270.015696 
L 265.365063 269.085033 
L 265.482762 269.431015 
L 265.718378 269.00307 
L 265.836294 268.039762 
L 265.954283 268.135832 
L 266.190478 268.630333 
L 266.308685 268.31516 
L 266.66374 268.441502 
L 266.782238 267.403633 
L 267.019451 267.638011 
L 267.256956 267.976951 
L 267.375818 267.891324 
L 267.971224 268.654946 
L 268.209899 269.0389 
L 268.448867 268.817358 
L 268.568462 268.851638 
L 268.807871 269.6091 
L 268.927686 267.208397 
L 269.047574 267.492824 
L 269.407682 267.338878 
L 269.527866 267.595209 
L 269.648123 267.167795 
L 269.88886 265.828803 
L 270.129893 266.575347 
L 270.25052 266.752651 
L 270.371221 265.970523 
L 270.85477 266.872977 
L 271.09699 266.871316 
L 271.218211 266.376025 
L 271.460878 266.956281 
L 271.582323 266.866537 
L 271.703843 266.96972 
L 271.947107 267.54108 
L 272.19067 267.469536 
L 272.434532 268.217829 
L 272.923157 265.461416 
L 273.290414 266.186766 
L 273.412984 266.17061 
L 273.535628 265.998882 
L 273.904015 266.684617 
L 274.026962 266.392168 
L 274.273082 266.552413 
L 274.396255 267.096604 
L 274.519504 266.963484 
L 274.76623 266.302085 
L 274.889706 266.441552 
L 275.013259 266.839302 
L 275.136887 265.74197 
L 275.260591 265.812008 
L 275.384371 265.057505 
L 275.63216 265.675122 
L 275.756169 264.990725 
L 275.880253 265.201678 
L 276.004414 264.762165 
L 276.252965 265.188949 
L 276.377356 264.491086 
L 276.875681 266.083456 
L 277.125303 264.113814 
L 277.250229 264.138504 
L 277.500311 264.690316 
L 277.625468 264.606772 
L 278.001399 265.177109 
L 278.126864 265.663022 
L 278.252406 265.361912 
L 278.629493 266.48016 
L 278.881272 266.96362 
L 279.007277 267.009137 
L 279.133359 267.29878 
L 279.385757 266.933287 
L 279.638465 267.399454 
L 279.891484 266.842691 
L 280.271595 267.368443 
L 280.398455 267.177838 
L 280.525392 267.398594 
L 280.652408 266.961806 
L 281.033923 267.908807 
L 281.288657 268.483448 
L 281.416142 268.594972 
L 281.671346 268.920771 
L 281.799066 268.942888 
L 281.926864 268.532618 
L 282.438843 269.061586 
L 282.567034 268.9591 
L 282.823653 269.009172 
L 282.952081 268.747904 
L 283.080588 268.888276 
L 283.209173 269.273981 
L 283.337838 268.996152 
L 283.466582 267.763713 
L 283.595405 268.29533 
L 283.724307 267.929302 
L 283.982349 268.264976 
L 284.240708 267.657861 
L 284.628842 268.248864 
L 285.147468 268.55552 
L 285.277324 268.576376 
L 285.40726 268.929756 
L 285.537275 268.781693 
L 285.927801 269.243144 
L 286.188552 268.658922 
L 286.449624 269.238738 
L 286.58028 268.974512 
L 286.841833 269.466187 
L 287.365904 270.092093 
L 287.497123 269.73885 
L 288.022806 269.855044 
L 288.154429 270.087296 
L 288.417917 269.455383 
L 288.945866 270.069241 
L 289.210327 270.231263 
L 289.342679 270.049471 
L 289.740225 270.324528 
L 291.070681 270.510191 
L 291.337755 270.757742 
L 291.605157 270.419568 
L 292.006876 271.049931 
L 292.140947 270.941823 
L 292.409336 270.033244 
L 292.543655 269.906388 
L 292.678056 269.944692 
L 292.812539 270.414076 
L 292.947105 270.390503 
L 293.216485 269.430038 
L 293.3513 269.447758 
L 293.75624 268.750923 
L 294.026615 269.100032 
L 294.161927 269.069956 
L 294.839737 269.67045 
L 294.975548 269.50207 
L 295.247423 269.970656 
L 295.383485 270.030763 
L 295.519631 269.758204 
L 295.792174 269.9985 
L 296.065052 269.366875 
L 296.201617 269.447938 
L 296.474998 269.241156 
L 296.611815 269.596514 
L 296.748716 269.254499 
L 297.297161 269.505262 
L 297.70938 269.454598 
L 297.984615 269.49504 
L 298.260189 270.193214 
L 298.398102 269.485627 
L 298.536101 269.41986 
L 298.674184 269.204041 
L 298.950605 269.556662 
L 299.227367 269.73728 
L 299.365875 269.49559 
L 299.920759 270.492772 
L 300.198713 269.83179 
L 300.616284 269.985199 
L 300.895093 269.763738 
L 301.453739 269.96604 
L 302.153981 270.079012 
L 302.43468 269.700481 
L 302.856376 270.727297 
L 302.997114 270.805831 
L 303.27885 269.268241 
L 303.560932 269.350286 
L 303.843361 268.795048 
L 304.126138 269.22414 
L 304.8346 269.773411 
L 304.976554 269.439227 
L 305.118595 269.633361 
L 305.260723 269.48813 
L 305.402939 269.565573 
L 305.83011 268.578919 
L 305.972676 268.795572 
L 306.115329 268.677599 
L 306.25807 269.282732 
L 306.400899 269.312559 
L 306.543815 268.787268 
L 306.686819 268.980441 
L 306.829911 268.829109 
L 306.973091 268.974432 
L 307.116359 268.850648 
L 307.546691 269.277905 
L 307.690312 269.166376 
L 307.83402 269.197667 
L 307.977817 269.081669 
L 308.265676 269.265999 
L 308.553889 269.291035 
L 308.842457 269.488733 
L 308.986874 269.775092 
L 309.275973 269.449911 
L 309.565428 270.397118 
L 309.710289 270.272869 
L 310.000278 269.648705 
L 310.290624 269.794182 
L 310.43593 269.300425 
L 310.872386 269.516373 
L 311.163804 269.38134 
L 311.309647 269.691773 
L 311.45558 270.32697 
L 311.601602 269.852521 
L 311.747715 270.508374 
L 312.040208 270.011427 
L 312.479624 270.090222 
L 312.773017 269.925239 
L 312.919849 270.181512 
L 313.066772 269.749256 
L 313.655364 270.420338 
L 313.802739 270.249307 
L 313.950203 270.336291 
L 314.245405 268.880662 
L 314.984998 268.88954 
L 315.281471 269.0829 
L 315.57831 268.516104 
L 315.726866 268.632172 
L 316.024251 268.174799 
L 316.769317 268.677125 
L 316.918604 268.593028 
L 317.067984 268.369239 
L 317.217455 268.613165 
L 317.367019 268.592576 
L 317.81626 268.985933 
L 317.966191 269.110682 
L 318.116214 269.506657 
L 318.26633 269.13565 
L 318.566838 269.331693 
L 319.018292 269.699229 
L 319.168962 269.680775 
L 319.47058 269.232141 
L 319.772568 268.962869 
L 319.923702 268.94524 
L 320.074928 269.154598 
L 320.226247 268.727445 
L 320.529164 269.052129 
L 321.440153 269.232459 
L 321.592311 269.372764 
L 321.744562 269.782014 
L 321.896908 268.56948 
L 322.201879 268.008419 
L 322.507225 268.475479 
L 323.119044 269.034802 
L 323.272234 269.079168 
L 323.578896 269.023414 
L 323.885935 269.168344 
L 324.039596 269.544481 
L 324.347202 268.658344 
L 324.501146 268.808264 
L 324.809319 267.771786 
L 324.963548 268.018077 
L 325.117871 267.781848 
L 325.426802 268.060268 
L 325.58141 268.250461 
L 326.045804 268.057667 
L 326.200793 268.171559 
L 326.355876 267.818648 
L 326.666329 269.006413 
L 326.821699 268.899719 
L 326.977164 268.120622 
L 327.288381 268.097583 
L 327.444133 267.252364 
L 327.599981 267.757744 
L 327.755924 267.221506 
L 328.068099 267.904445 
L 328.22433 267.877049 
L 328.380657 267.998007 
L 328.53708 267.930853 
L 328.693599 268.306728 
L 329.006926 268.040079 
L 329.163734 268.103945 
L 329.320639 268.371781 
L 329.477639 267.591109 
L 329.634737 268.060878 
L 329.79193 267.674596 
L 329.949221 267.849658 
L 330.106608 267.507165 
L 330.421672 268.52521 
L 330.57935 267.932596 
L 330.737124 267.827639 
L 331.527451 268.912376 
L 332.002813 268.922013 
L 332.320209 269.202801 
L 332.637994 269.187193 
L 333.115406 269.474377 
L 333.434169 269.474026 
L 333.593698 269.301851 
L 333.913049 269.544242 
L 334.072872 269.764559 
L 334.232793 270.220939 
L 334.392812 269.896821 
L 334.55293 269.187772 
L 334.713146 269.15395 
L 334.87346 269.312682 
L 335.033874 269.135714 
L 335.194385 269.405333 
L 335.354995 268.522139 
L 335.676512 268.840928 
L 335.998424 269.19474 
L 336.320732 268.536391 
L 336.643436 268.859059 
L 336.966536 268.529593 
L 337.128236 268.040643 
L 337.451932 268.428132 
L 337.776027 267.130715 
L 337.938224 267.222252 
L 338.262916 267.726083 
L 338.425412 267.618978 
L 338.588008 266.895391 
L 338.750703 266.98638 
L 338.913499 267.699883 
L 339.076395 267.743978 
L 339.239391 267.508558 
L 339.402487 267.926788 
L 339.565683 266.868852 
L 339.728979 266.864549 
L 340.055873 267.210399 
L 340.383169 265.193685 
L 340.546968 265.891205 
L 340.710868 264.689794 
L 341.038969 261.027056 
L 341.860988 262.814153 
L 342.355412 264.563337 
L 342.520423 264.215302 
L 342.685535 264.778692 
L 342.850749 263.740441 
L 343.016064 260.406132 
L 343.181481 261.029595 
L 343.512619 256.558881 
L 343.678341 257.467374 
L 343.844165 257.459353 
L 344.010091 257.147241 
L 344.176118 257.327824 
L 344.342248 257.898278 
L 344.50848 257.736482 
L 345.007788 259.312219 
L 345.341172 258.499201 
L 345.674965 260.550654 
L 346.176426 261.694364 
L 346.343784 261.672498 
L 346.678811 262.517826 
L 346.846478 263.256313 
L 347.014249 263.290544 
L 347.350099 261.853648 
L 347.686363 262.656366 
L 347.85465 262.240919 
L 348.02304 262.376073 
L 348.191533 260.713372 
L 348.697636 262.203532 
L 349.035556 263.462622 
L 349.204672 262.688963 
L 349.373891 262.932152 
L 349.543215 263.445611 
L 349.712643 261.969252 
L 349.882175 262.039615 
L 350.221551 262.968573 
L 350.391396 262.78431 
L 350.731398 265.162069 
L 350.901556 263.484022 
L 351.071819 264.638639 
L 351.412658 265.245679 
L 352.266589 266.203642 
L 352.608897 266.688732 
L 352.951626 267.216821 
L 353.123148 267.074957 
L 353.466509 267.291575 
L 353.810292 266.739881 
L 354.154498 267.815356 
L 354.499126 267.592814 
L 354.844179 268.123516 
L 355.189656 268.342127 
L 355.362553 268.208653 
L 355.708667 268.439807 
L 356.055207 267.563093 
L 356.402172 267.896624 
L 356.575815 268.101571 
L 356.749564 268.050601 
L 357.271453 268.394619 
L 357.968803 268.916398 
L 358.143409 268.26736 
L 358.318121 268.269831 
L 358.842904 268.707485 
L 359.193297 268.225308 
L 359.54412 268.4222 
L 359.895375 267.340219 
L 360.071164 267.16499 
L 360.247062 267.433011 
L 360.423067 267.468533 
L 360.775403 267.9575 
L 360.951733 267.645464 
L 361.481373 267.999317 
L 361.83501 268.13831 
L 362.36628 268.968518 
L 362.543588 268.778799 
L 362.721004 269.305179 
L 363.076165 269.572348 
L 363.253909 270.272678 
L 363.609724 270.421781 
L 364.144268 270.110659 
L 364.322668 269.473426 
L 364.858527 270.009255 
L 365.037366 269.828266 
L 365.395375 269.954771 
L 365.753823 269.933748 
L 365.933212 270.049446 
L 366.112712 269.665805 
L 366.292322 268.444571 
L 366.651873 268.874887 
L 366.831814 269.022177 
L 367.011866 268.409676 
L 367.192029 268.626081 
L 367.372302 268.45632 
L 367.913786 268.93977 
L 368.094503 268.958197 
L 368.275331 268.48497 
L 368.63732 268.917339 
L 369.181138 269.13625 
L 369.362633 269.098627 
L 369.54424 269.310757 
L 369.725959 269.319399 
L 370.271785 269.801961 
L 370.453951 269.4268 
L 370.636229 269.631067 
L 371.00112 269.468353 
L 371.36646 269.686957 
L 371.732249 268.513392 
L 372.098488 268.638947 
L 372.281777 268.891874 
L 372.465177 268.765831 
L 373.016057 269.236672 
L 373.383874 269.292498 
L 373.567952 269.373519 
L 373.752143 269.266659 
L 374.305396 269.373416 
L 374.674799 268.742988 
L 374.85967 269.132106 
L 375.044655 269.163041 
L 375.229754 269.480071 
L 375.414966 269.15079 
L 375.600293 268.381578 
L 376.156955 268.529107 
L 376.342737 269.170402 
L 376.714644 267.435871 
L 376.900769 267.552218 
L 377.087009 267.386505 
L 377.273363 267.573361 
L 377.459831 267.382232 
L 377.646414 267.405258 
L 377.833111 267.571173 
L 378.019923 268.052656 
L 378.206851 267.082037 
L 378.393892 267.777765 
L 378.581049 266.975305 
L 378.768321 267.531631 
L 379.51856 268.204784 
L 379.706408 268.612465 
L 379.894372 268.065232 
L 380.270645 268.236452 
L 380.458955 268.386087 
L 380.647381 268.177988 
L 380.835923 268.398707 
L 381.02458 268.31181 
L 381.591249 268.779458 
L 382.158962 268.999657 
L 382.348433 269.135735 
L 382.53802 268.940526 
L 382.917543 269.165453 
L 383.10748 269.373668 
L 383.297534 269.852926 
L 383.677991 268.690735 
L 384.058916 268.818857 
L 384.249554 268.904693 
L 384.631182 268.894457 
L 384.822171 269.134063 
L 385.013279 269.793092 
L 385.395845 268.882151 
L 385.587305 268.980591 
L 385.778882 269.210505 
L 385.970577 267.921403 
L 386.16239 267.501972 
L 386.546369 268.033745 
L 386.738536 267.536693 
L 386.930821 268.538098 
L 387.123224 267.776767 
L 387.315745 268.255915 
L 387.701142 267.756803 
L 388.087013 268.060752 
L 388.280126 268.518432 
L 388.473359 267.653326 
L 388.666709 267.308513 
L 389.247475 267.741569 
L 389.441302 268.034025 
L 389.635247 267.899339 
L 390.023496 267.957646 
L 390.217799 268.185429 
L 390.412222 267.951392 
L 390.801426 268.346987 
L 390.996208 268.20759 
L 391.38613 268.628123 
L 391.581271 268.610558 
L 392.167413 269.296398 
L 392.363033 269.312167 
L 392.950618 269.698759 
L 393.14672 269.037918 
L 393.735749 268.928297 
L 394.129039 268.017996 
L 394.325866 268.166832 
L 394.522813 268.612247 
L 394.719881 268.317366 
L 394.917071 267.242102 
L 395.311813 267.269294 
L 395.509366 267.597141 
L 395.904837 263.432167 
L 396.102754 263.854014 
L 396.300793 262.720782 
L 396.498954 262.331938 
L 396.697237 263.078452 
L 397.690479 264.646455 
L 397.889494 264.535862 
L 398.088631 264.866228 
L 398.287891 264.639175 
L 398.487273 265.274004 
L 398.487273 265.274004 
" clip-path="url(#p5706492568)" style="fill: none; stroke: #1f77b4; stroke-width: 1.5; stroke-linecap: square"/>
   </g>
   <g id="patch_3">
    <path d="M 57.6 307.584 
L 57.6 41.472 
" style="fill: none; stroke: #000000; stroke-width: 0.8; stroke-linejoin: miter; stroke-linecap: square"/>
   </g>
   <g id="patch_4">
    <path d="M 414.72 307.584 
L 414.72 41.472 
" style="fill: none; stroke: #000000; stroke-width: 0.8; stroke-linejoin: miter; stroke-linecap: square"/>
   </g>
   <g id="patch_5">
    <path d="M 57.6 307.584 
L 414.72 307.584 
" style="fill: none; stroke: #000000; stroke-width: 0.8; stroke-linejoin: miter; stroke-linecap: square"/>
   </g>
   <g id="patch_6">
    <path d="M 57.6 41.472 
L 414.72 41.472 
" style="fill: none; stroke: #000000; stroke-width: 0.8; stroke-linejoin: miter; stroke-linecap: square"/>
   </g>
   <g id="PathCollection_1">
    <defs>
     <path id="mf9e44f8cdc" d="M 0 4.330127 
C 1.148363 4.330127 2.249847 3.873878 3.061862 3.061862 
C 3.873878 2.249847 4.330127 1.148363 4.330127 0 
C 4.330127 -1.148363 3.873878 -2.249847 3.061862 -3.061862 
C 2.249847 -3.873878 1.148363 -4.330127 0 -4.330127 
C -1.148363 -4.330127 -2.249847 -3.873878 -3.061862 -3.061862 
C -3.873878 -2.249847 -4.330127 -1.148363 -4.330127 0 
C -4.330127 1.148363 -3.873878 2.249847 -3.061862 3.061862 
C -2.249847 3.873878 -1.148363 4.330127 0 4.330127 
z
" style="stroke: #ff0000"/>
    </defs>
    <g clip-path="url(#p5706492568)">
     <use xlink:href="#mf9e44f8cdc" x="73.832761" y="63.944586" style="fill: #ff0000; stroke: #ff0000"/>
    </g>
   </g>
   <g id="legend_1">
    <g id="patch_7">
     <path d="M 287.349688 64.150125 
L 407.72 64.150125 
Q 409.72 64.150125 409.72 62.150125 
L 409.72 48.472 
Q 409.72 46.472 407.72 46.472 
L 287.349688 46.472 
Q 285.349688 46.472 285.349688 48.472 
L 285.349688 62.150125 
Q 285.349688 64.150125 287.349688 64.150125 
z
" style="fill: #ffffff; opacity: 0.8; stroke: #cccccc; stroke-linejoin: miter"/>
    </g>
    <g id="PathCollection_2">
     <g>
      <use xlink:href="#mf9e44f8cdc" x="299.349688" y="55.445438" style="fill: #ff0000; stroke: #ff0000"/>
     </g>
    </g>
    <g id="text_14">
     <!-- steepest gradient -->
     <g transform="translate(317.349688 58.070438) scale(0.1 -0.1)">
      <defs>
       <path id="DejaVuSans-70" d="M 1159 525 
L 1159 -1331 
L 581 -1331 
L 581 3500 
L 1159 3500 
L 1159 2969 
Q 1341 3281 1617 3432 
Q 1894 3584 2278 3584 
Q 2916 3584 3314 3078 
Q 3713 2572 3713 1747 
Q 3713 922 3314 415 
Q 2916 -91 2278 -91 
Q 1894 -91 1617 61 
Q 1341 213 1159 525 
z
M 3116 1747 
Q 3116 2381 2855 2742 
Q 2594 3103 2138 3103 
Q 1681 3103 1420 2742 
Q 1159 2381 1159 1747 
Q 1159 1113 1420 752 
Q 1681 391 2138 391 
Q 2594 391 2855 752 
Q 3116 1113 3116 1747 
z
" transform="scale(0.015625)"/>
       <path id="DejaVuSans-64" d="M 2906 2969 
L 2906 4863 
L 3481 4863 
L 3481 0 
L 2906 0 
L 2906 525 
Q 2725 213 2448 61 
Q 2172 -91 1784 -91 
Q 1150 -91 751 415 
Q 353 922 353 1747 
Q 353 2572 751 3078 
Q 1150 3584 1784 3584 
Q 2172 3584 2448 3432 
Q 2725 3281 2906 2969 
z
M 947 1747 
Q 947 1113 1208 752 
Q 1469 391 1925 391 
Q 2381 391 2643 752 
Q 2906 1113 2906 1747 
Q 2906 2381 2643 2742 
Q 2381 3103 1925 3103 
Q 1469 3103 1208 2742 
Q 947 2381 947 1747 
z
" transform="scale(0.015625)"/>
      </defs>
      <use xlink:href="#DejaVuSans-73"/>
      <use xlink:href="#DejaVuSans-74" x="52.099609"/>
      <use xlink:href="#DejaVuSans-65" x="91.308594"/>
      <use xlink:href="#DejaVuSans-65" x="152.832031"/>
      <use xlink:href="#DejaVuSans-70" x="214.355469"/>
      <use xlink:href="#DejaVuSans-65" x="277.832031"/>
      <use xlink:href="#DejaVuSans-73" x="339.355469"/>
      <use xlink:href="#DejaVuSans-74" x="391.455078"/>
      <use xlink:href="#DejaVuSans-20" x="430.664062"/>
      <use xlink:href="#DejaVuSans-67" x="462.451172"/>
      <use xlink:href="#DejaVuSans-72" x="525.927734"/>
      <use xlink:href="#DejaVuSans-61" x="567.041016"/>
      <use xlink:href="#DejaVuSans-64" x="628.320312"/>
      <use xlink:href="#DejaVuSans-69" x="691.796875"/>
      <use xlink:href="#DejaVuSans-65" x="719.580078"/>
      <use xlink:href="#DejaVuSans-6e" x="781.103516"/>
      <use xlink:href="#DejaVuSans-74" x="844.482422"/>
     </g>
    </g>
   </g>
  </g>
 </g>
 <defs>
  <clipPath id="p5706492568">
   <rect x="57.6" y="41.472" width="357.12" height="266.112"/>
  </clipPath>
 </defs>
</svg>
